<?xml version="1.0" encoding="utf-8"?>
<!-- Generator: Adobe Illustrator 22.1.0, SVG Export Plug-In . SVG Version: 6.00 Build 0)  -->
<svg version="1.1" id="Layer_1" xmlns="http://www.w3.org/2000/svg" xmlns:xlink="http://www.w3.org/1999/xlink" x="0px" y="0px"
	 viewBox="0 0 500 500" style="enable-background:new 0 0 500 500;" xml:space="preserve">
<g>
	<path d="M221.9,32.3c4.7-3.9,9.2-8,14.6-11c20.6-12,41.8-11.8,63.3-2.7c9.4,4,17.9,9.4,26.1,15.5c0.6,0.5,1.3,0.9,1.9,1.3
		c2.1,1.7,4.2,3.5,6.3,5.2c0.1,0.1,0.2,0.3,0.3,0.4c15.2,13.1,28,28.4,39.9,44.5c7,9.5,13.6,19.3,20.2,29c0.2,0.2,0.4,0.3,0.5,0.5
		l0,0c0,0.5,0.1,0.9,0.6,1c0,0,0-0.1,0-0.1c0.4,2,1.7,3.5,2.7,5.2c2.8,4.5,4.9,9.4,8,13.8c0,0.4-0.1,0.8,0.6,0.8c0,0,0,0,0,0
		c1.5,4.8,4.2,9.1,6.3,13.6c1.2,2.8,2.4,5.6,3.6,8.4c5.8,14.4,10.9,29.1,14.6,44.2c3.2,12.8,5.3,25.7,7,38.8
		c0.3,3.3,0.6,6.6,0.9,9.9c0,0.9,0,1.7,0,2.6c1.2,19,0.4,37.9-2.5,56.8c-0.7,4.5-2.1,8.8-2.2,13.4l0.1,0c-0.6-0.1-0.4,0.4-0.5,0.7
		c-1.2,4.5-2.5,9-3.7,13.6c-2.7,6.8-5.5,13.6-8.2,20.4c-1.2,2.4-2.8,4.7-3.7,7.3c-4.6,7.6-9.1,15.2-14.6,22.2
		c-26.9,34.2-61.3,57-103.5,67.8c-20.4,5.2-40.4,3.4-59.4-6.3c-0.4-0.2-0.8-0.3-1.2-0.5c-1.9-1.1-3.9-2.2-5.8-3.3
		c-9.7-6.4-18.3-14.1-25.7-23c-1.7-2.2-3.4-4.5-5.1-6.7c-5.7-8.6-10.9-17.6-15.3-26.9c-0.1-0.2-0.3-0.4-0.4-0.6c0,0,0,0,0,0
		c-1.2-2.9-2.5-5.9-3.7-8.8c0-0.3,0-0.6-0.4-0.6c0,0,0,0,0,0c-2.4-7.1-4.8-14.1-7.3-21.2c-1.1-4.1-1.8-8.3-3.6-12.1
		c0.3-1-0.1-1.9-0.3-2.8c-3.7-14.5-6-29.2-8-44c-0.4-3.3-0.7-6.5-1.1-9.8c-0.1-0.2,0.1-0.7-0.4-0.5l0,0.1c0.5-0.6,0.2-1.3,0.1-2
		c-1.7-19.8-2.5-39.6-1.8-59.5c0.8-24.2,3.1-48.2,7.2-72c0.4-2.2,0.8-4.5,1.2-6.7c0.3-1.1,0.6-2.1,0.8-3.2c1.7-7.2,3.3-14.4,5-21.6
		c1.3-4.4,2.6-8.8,4-13.1c0.2-0.5,0.4-0.9,0.6-1.4c8.2-25,18.3-49,35.5-69.5C217.6,36.7,219.7,34.5,221.9,32.3z M198.6,394
		L198.6,394c1.4,4,3.8,7.5,6.2,11c1.6,3,3.4,5.8,5.7,8.3c7.5,10.6,16.7,19.5,27.9,26.2c1.7,1.3,3.6,2.4,5.7,3.2
		c0.4,0.3,0.8,0.6,1.3,0.8c18.6,9.2,37.9,9.9,57.5,4.4c34-9.6,62.9-27.5,86.8-53.5c7.8-8.5,14.8-17.6,20.3-27.8
		c1.7-2.2,2.9-4.7,4.1-7.2c1.5-3.2,3.6-6.1,4.2-9.6c2.8-4.5,4.3-9.4,5.7-14.5c2.7-6.5,4.1-13.4,5.4-20.3c3.5-18.5,4.7-37.1,3.8-55.9
		c0.2-3.3-0.4-6.6-0.6-10c0-0.3,0.1-0.5,0.1-0.8c-2.1-23.3-6.7-46-14.3-68.1c-3-8.8-6.1-17.6-10.4-26c-0.8-2.8-2.2-5.4-3.6-7.9
		c-2.6-6.1-5.8-11.8-9-17.5c-2.3-4.1-4.5-8.3-7.5-11.9c-0.1-0.4-0.2-0.9-0.7-1c0,0,0,0.1,0,0.1c-0.1-0.4-0.1-0.9-0.4-1.2
		c-4.6-6.6-8.6-13.6-14.1-19.6c0.3-1.1-0.6-1.7-1.1-2.5c-4.8-6.7-9.8-13.3-15.1-19.6c-9.3-11.2-19.2-21.8-30.8-30.8
		c-2.2-1.9-4.5-3.7-7-5.3c-10-7.2-20.5-13.3-32.5-16.4c-19.9-5.2-37.9-1.6-53.9,11.6c-2.6,1.8-4.9,3.8-6.9,6.2
		c-0.6,0.6-1.3,1.1-1.9,1.7c-16.2,17.2-25.9,38.1-33.6,60c-1.7,4-3.2,8.1-4.1,12.4c-1.2,2.1-1.6,4.5-2.3,6.8c-2.5,9-5.1,18-6.5,27.2
		c-0.8,2.2-1.1,4.5-1.4,6.8c-1.6,7.3-2.7,14.7-3.6,22.1c-3.7,28.5-5.2,57-3.9,85.7c0.5,11.4,1.3,22.8,2.8,34.2
		c0.4,3.1,0.8,6.3,1.2,9.4c1.1,7.8,2.4,15.6,4,23.3c1.9,8.8,3.7,17.6,6.6,26.1c0.7,3.6,2,6.9,3.2,10.3c0,0.3,0,0.6,0.4,0.6l0,0
		c1.7,6.6,4.4,12.8,7.4,19c1.3,3.3,2.7,6.5,4.6,9.4C198.2,393.8,198.2,394,198.6,394z"/>
	<path d="M184.1,379c1.2,2.9,2.5,5.9,3.7,8.8c-1,0.2-1.8-0.4-2.6-0.8c-32-16-63.1-33.7-93.3-53c-19.5-12.5-38.1-26.3-55.6-41.4
		c-11.1-9.5-21.2-19.9-28-33.1c-6.6-12.8-8.8-26.1-4-40.1c3.2-9.3,9.3-16.6,16.7-22.9c16.2-13.5,35.2-21.6,54.9-28.4
		c9.4-3.2,19-5.9,28.7-8.2c-0.2,2.4-0.5,4.8-0.7,7.2c-0.8,0.1-1.7,0.2-2.5,0.4c-17.6,4.4-34.8,10.1-51.1,18.2
		c-11,5.5-21.5,11.6-30,20.7c-12,12.8-15,27.4-8.9,43.8c4.1,11.1,11.3,20.2,19.6,28.4c16.5,16.2,34.9,30.1,54.1,42.9
		c30.9,20.8,63.3,39.1,96.4,56.3c0.7,0.4,1.5,1,2.4,0.7c0,0,0,0,0,0C183.6,378.8,183.8,378.9,184.1,379z"/>
	<path d="M439.4,250.5c-0.3-3.3-0.6-6.6-0.9-9.9c5.2-6.8,9.8-14.1,14.3-21.4c3.1-5,6.2-9.8,8.6-15.2c1.7-1.9,2.5-4.3,3.7-6.4
		c0.6-1.2,1.2-2.4,1.8-3.6c1.3-2.1,2.6-4.2,3.1-6.7c0.5-0.8,1-1.6,1.4-2.4c7.3-15.3,13.2-31.2,16.9-47.8c3.5-16,5-32.1,1.8-48.3
		c-3.9-19.8-14.5-34.6-32.4-44.1c-16.1-8.5-33.7-11-51.5-11.8c-10.8-0.5-21.6,0.3-32.4,1.3c-13.3,1.3-26.6,3.5-39.6,6.3
		c-2.1-1.7-4.2-3.5-6.3-5.2c7.5-2.1,15.2-3.4,22.9-4.6c14.5-2.4,29.1-4,43.8-4.3c20.2-0.4,40,1.3,58.9,9
		c25.6,10.5,40.2,29.7,44,57.1c3,21.3-0.8,41.8-7,62c-3.9,12.9-9.1,25.4-15.1,37.5c-0.3,0.6-0.5,1.3-0.7,1.9
		c-1.4,2.2-2.6,4.5-3.6,6.9c-0.9,0.9-1.3,2.1-1.8,3.4c-1.5,2.1-2.8,4.4-3.8,6.7c-3.1,5-6.1,10.1-9.3,15.1
		C450.8,234.4,445.5,242.7,439.4,250.5z"/>
	<path d="M103.8,167.1c0.2-2.4,0.5-4.8,0.7-7.2c2.3-14.7,5.8-29.1,11.4-43c7.7-19.3,17.7-37.3,31.8-52.7
		c16.9-18.5,37.9-28.9,62.8-31.6c3.8-0.4,7.5-0.6,11.3-0.4c-2.1,2.2-4.3,4.5-6.4,6.7c-1.3,0-2.6-0.1-3.9,0.1
		c-23.4,2.5-43.3,12-59,29.6C134,89.5,122.1,114,115,140.9c-1.5,5.5-3,11.1-3.2,16.9c0,0,0,0,0,0c-0.4,0-0.4,0.2-0.4,0.5
		c-0.4,2.3-0.9,4.5-0.8,6.8c-0.1,0.5-0.3,1-0.3,1.5c-1,11.7-0.9,23.3,1,34.9c1.6,9.7,4,19.3,8.2,28.3c0.3,5.5,0.6,10.9,0.9,16.4
		c-4.8-7.8-8.3-16.1-11.1-24.8C103.7,203.6,102.4,185.5,103.8,167.1z"/>
	<path d="M465.4,211c1-2.4,2.2-4.6,3.8-6.7c2.3,4.2,4.7,8.3,7,12.5l0,0c0.1,0.2,0.2,0.4,0.4,0.6c2.6,5.5,5.1,11.1,7.7,16.6
		c4,10.3,7.6,20.6,9.7,31.4c2.6,13.2,3.4,26.4,0.6,39.7c-3.5,16.2-12,29.3-25,39.4c-14.9,11.7-32.3,17.4-50.8,20.6
		c0.9-2.6,2.4-4.9,3.7-7.3c11.3-2.1,22.1-5.7,32.2-11.2c18.6-10.2,30.9-25.2,34.2-46.6c2.7-17.7-0.5-34.7-6.3-51.4
		c-1.3-4.3-2.8-8.6-4.8-12.6C474.3,227.2,470.1,219,465.4,211z"/>
	<path d="M234.3,445c1.9,1.1,3.9,2.2,5.8,3.3c-8.4,11-18.4,20.4-29.8,28.2c-7.6,5.1-15.4,9.7-24.6,11.3c-2,0.3-4,0.4-5.9,0.2
		c-6.1-0.6-8.4-5.5-4.9-10.5c4.7-6.8,8.7-14,12.6-21.3c6.5-12.4,12.2-25.2,15.6-38.9c0.2-0.7,0.3-1.3,0.4-2c1.7,2.2,3.4,4.5,5.1,6.7
		c-2.6,9.9-6.4,19.2-10.8,28.4c-4.8,10-10.2,19.7-16.3,29c-0.3,0.5-1.2,1.1-0.6,1.8c0.3,0.3,1.1,0.3,1.7,0.3
		c3.3,0.1,6.5-0.8,9.5-2.2C209,471.4,222.9,459.7,234.3,445z"/>
	<path d="M484.2,233.9c-2.6-5.5-5.1-11.1-7.7-16.6c-0.1-0.2-0.2-0.4-0.4-0.6c0,0,0,0,0,0c-0.6-5.7-2.7-10.8-5.3-15.8
		c1-2.4,2.2-4.7,3.6-6.9c5.4,8.7,8.2,18.2,9.4,28.2C484.3,226.1,484.6,230,484.2,233.9z"/>
	<path d="M187.8,387.7c0.1,0.2,0.3,0.4,0.4,0.6C188,388.1,187.9,387.9,187.8,387.7z"/>
	<path d="M182.6,354.2c11.5,8.5,24,14.6,38,17.6c15.8,3.3,31.5,2.9,47.3-0.2c10.7-2.1,21.1-5.4,31.1-9.9c3.5-1.4,7-2.8,10.2-4.8
		c8.4-3.7,16.3-8.5,24.1-13.4c26.1-16.5,48.8-37,69.8-59.3c10-10.6,19.3-21.7,28-33.4c0.4-0.5,0.9-1,1.4-1.5c0.2,3.3,0.8,6.6,0.6,10
		c-7.6,9.3-15.2,18.6-23.4,27.5c-9.4,10.1-19.1,19.8-29.3,29c-12.4,11.1-25.3,21.5-39.2,30.5c-6.5,4.2-13.2,8.1-19.8,12.1
		c-3.5,1.5-6.8,3.3-10.1,5.2c-5.5,2.3-11,4.8-16.6,7c-19,7.4-38.6,11.2-59,10c-16.7-1-32.4-5.7-46.9-14.3c-0.8-0.5-1.5-1.3-2.5-1.1
		c0,0,0,0,0,0c0.1-0.3-0.1-0.5-0.4-0.6C184.6,361.1,183.3,357.7,182.6,354.2z"/>
	<path d="M148.1,157.8c-9.3,14.7-16.1,30.4-19.5,47.6c-2.5,13.1-3.1,26.4-1.7,39.7c0.5,5.3,1.2,10.6,2.5,15.7c0,0.4-0.1,0.8,0.5,0.9
		l0,0c-0.2,1,0,1.9,0.3,2.8c4.4,18.9,11.8,36.5,21.6,53.2c5.9,10,12.6,19.5,21.1,27.5c1.8,3.9,2.4,8.1,3.6,12.1
		c-8-6.2-14.7-13.7-20.6-21.8c-15.1-20.7-25.5-43.7-31.7-68.5c-1.7-6.8-2.8-13.8-3.6-20.8c-0.3-5.5-0.6-10.9-0.9-16.4
		c0.2-4.7,0.5-9.4,1-14.1c1.6-15.2,5.7-29.8,12.3-43.6c2-4.3,4.2-8.4,6.4-12.6c1.5-2.4,3.1-4.9,4.6-7.3
		c9.7-14.7,20.8-28.1,33.5-40.4c0.7-0.7,1.4-1.2,2.1-1.9c-1.3,4.4-2.6,8.8-4,13.1c-8.3,8.3-15.6,17.5-22.3,27.1
		C151.5,152.7,149.8,155.3,148.1,157.8z"/>
	<path d="M176.9,146.6c7.8-0.9,15.7-1.9,23.5-2.7c7.8-0.9,15.5-1.8,23.3-2.4c13.9-1,27.8-1.9,41.6-2.6c8.8-0.4,17.7-0.3,26.6-0.7
		c14.9-0.7,29.8-0.7,44.6-0.2c22.5,0.7,44.9,2.7,66.8,8.5c0.3,0.1,0.7,0,1,0.1c1.4,2.5,2.8,5.1,3.6,7.9c-11.4-3.2-23-5.6-34.8-7.1
		c-5.5-0.7-11.1-1.3-16.6-1.7c-22.2-1.8-44.4-1.3-66.6-0.9c-15.8,0.3-31.6,1.1-47.4,2.1c-12,0.7-24,1.8-35.9,3
		c-10.4,1-20.8,2.5-31.2,3.7C175.8,151.1,176.1,148.7,176.9,146.6z"/>
	<path d="M395.6,368c-7,5.6-14.5,10.4-22.1,15.1c-15.5,9.5-31.8,17.5-49.1,23c-13,4.2-26.4,6.8-40.1,7.6c-7,0.4-13.9,0.2-20.8-0.5
		c-1.8-0.2-2.1,1.3-2.7,2.3c-4.6,7.5-9.1,15.1-13.7,22.7c-0.9,1.5-2,3-3,4.5c-2.1-0.8-3.9-1.9-5.7-3.2c5.5-8,10.2-16.5,15.3-24.8
		c0.4-0.6,0.8-1.1,1.1-1.7c2.7-5.2,6.9-6.9,12.6-6c7.6,1.1,15.3,0.6,22.9-0.1c11.8-1.2,23.3-3.8,34.6-7.6
		c20.9-7.1,40.1-17.6,58.2-30c0.2-0.1,0.4-0.4,0.5-0.5C387.6,368.1,391.6,368.2,395.6,368z"/>
	<path d="M287.8,45.8c10.2-3.2,20.6-5.8,30.9-8.7c2.5,1.6,4.8,3.4,7,5.3c-9.4,2.1-18.7,4.3-27.8,7.3c-3.3,0.7-6.5,1.7-9.6,3.1
		c-15,4.8-29.4,11.1-43.4,18.4c-16.6,8.7-32.3,18.9-46.9,30.9c-4.2,3.4-8.2,7-12.4,10.5c0.9-4.3,2.4-8.4,4.1-12.4
		c5.1-3.9,10.1-7.9,15.3-11.8c22-16.2,46-28.9,71.5-38.5c0.6-0.2,1.1-0.5,1.7-0.7C281.5,48.1,284.7,46.9,287.8,45.8z"/>
	<path d="M309.3,356.8c-3.2,2-6.7,3.4-10.2,4.8c-23.3-4.5-45.9-11.5-67.5-21.1c-20.6-9.2-39.8-20.5-57.6-34.3
		c-0.6-0.5-1.3-0.9-1.9-1.3c-0.4-3.1-0.8-6.3-1.2-9.4c23.3,19.3,49.2,34.1,77.4,45c17.4,6.7,35.4,11.5,53.7,15.2
		C304.3,356.2,306.8,356.4,309.3,356.8z"/>
	<path d="M297.9,49.7c14.8,6.8,29.2,14.5,43,23.4c10.1,6.5,19.8,13.4,29.3,20.7c0.8,0.6,1.4,1.6,2.6,1.5c5.5,5.9,9.5,13,14.1,19.6
		c0.2,0.3,0.2,0.8,0.4,1.2c-2-0.7-3.3-2.4-4.8-3.7c-25.9-22.2-53.8-41.3-84.9-55.5c-3-1.4-6.1-2.7-9.2-4
		C291.4,51.5,294.6,50.5,297.9,49.7z"/>
	<path d="M434.7,323.1c3.8-3.3,6.6-7.4,9.6-11.3c12-15.7,22.1-32.5,28.4-51.5c2.6-7.9,4.2-16.1,5-24.4c2.1,4,3.6,8.3,4.8,12.6
		c-3.4,16.3-9.8,31.4-18.3,45.6c-8.8,14.8-19.3,28.4-31.2,40.9c-0.8,0.8-1.6,1.5-2.4,2.3c1.2-4.5,2.5-9,3.7-13.6
		C434.4,323.6,434.6,323.4,434.7,323.1C434.8,323.1,434.7,323.1,434.7,323.1z"/>
	<path d="M461.4,204c-8.5-14-18-27.3-28.5-39.9c-0.2-0.2-0.4-0.4-0.7-0.6c0,0,0,0,0,0c-1.4-2.5-3.4-4.4-5.2-6.5
		c-1.4-1.6-2.5-3.7-4.6-4.6c0-0.2,0-0.6-0.1-0.7c-5-5.5-9.7-11.2-15.4-16.1c0,0,0,0,0,0c-0.2-0.3-0.4-0.6-0.6-0.8
		c-3.1-4.3-5.2-9.3-8-13.8c-1-1.6-2.4-3.2-2.7-5.2c3.5,2.1,6.1,5.1,9,7.9c11.9,11.4,22.9,23.5,33.5,36.1c4.5,5.9,9,11.7,13.6,17.6
		c4.6,6.7,9.2,13.3,13.5,20.2C463.8,199.7,463,202.1,461.4,204z"/>
	<path d="M395.6,368c-4,0.1-8.1,0-12.1,0.6c-9.5-0.1-19.1,0-28.6-0.6c-14.2-0.8-28.4-2.3-42.5-4.2c-0.4-0.1-0.8-0.3-1.2-0.4
		c3.3-1.9,6.6-3.7,10.1-5.2c5.7,1.1,11.6,1.5,17.4,2c11.5,1.1,23.1,1.8,34.7,1.7c6.9,0,13.7,0.2,20.6-0.7c4,0.1,8-0.3,11.9-1
		c2.7,0.1,5.4-0.6,8.1-0.9c-1.2,2.5-2.4,5-4.1,7.2C405.2,367.1,400.4,367.6,395.6,368z"/>
	<path d="M287.8,45.8c-3.2,1.1-6.3,2.3-9.5,3.4c-8.1-3.2-16.4-5.4-24.9-7.2c-5.9-1.3-11.9-2.2-18-2.9c-2.5-0.3-5-0.1-7.5-0.2
		c-0.9,0-1.9,0.4-2.6-0.5c2-2.4,4.3-4.4,6.9-6.2c2.8,1,5.8,0.6,8.6,1C257.1,35.5,272.7,39.6,287.8,45.8z"/>
	<path d="M164.5,298.3c-12.3-10.3-23.2-22-32.9-34.8c-0.5-0.7-0.8-1.6-1.7-1.9c0,0,0,0,0,0c0-0.4-0.1-0.7-0.5-0.9
		c-1.3-5.2-2-10.4-2.5-15.7c5,7.6,10,15.2,15.8,22.2c5.8,7,12.1,13.6,18.7,19.8c0.4,0.4,0.8,0.9,1.5,1c0,0,0-0.1,0-0.1
		c0.1,0.2,0.3,0.4,0.4,0.5C163.8,291.8,164.1,295.1,164.5,298.3z"/>
	<path d="M406,360.4c-3.9,0.7-7.9,1.2-11.9,1c10.4-8.1,20.5-16.7,29.9-26.1c-1.3,5-2.9,10-5.7,14.5
		C414.2,353.3,410.1,356.8,406,360.4z"/>
	<path d="M193.6,384c4,1.9,7.9,3.7,11.9,5.6c2.8,1.4,4.3,3.9,5.1,6.8c1.6,5.6,0.9,11.2-0.1,16.8c-2.2-2.5-4.1-5.3-5.7-8.3
		c0-1.5,0.1-3.1,0-4.6c-0.4-4-2.1-5.8-6.2-6.5l0,0c0-0.3-0.2-0.5-0.5-0.5C196.3,390.5,194.9,387.3,193.6,384z"/>
	<path d="M153.2,150.1c5.5-0.8,11-1.5,16.5-2.3c-0.4,2.2-0.8,4.5-1.2,6.7c-6.8,1.1-13.6,2.1-20.5,3.2
		C149.8,155.3,151.5,152.7,153.2,150.1z"/>
	<path d="M422.4,152.4c2.1,1,3.2,3,4.6,4.6c1.8,2.1,3.9,4,5.2,6.5c-2.7-0.2-4.8-2-7.3-2.9c-2.7-1-5.3-2.4-8.2-3
		c-1.2-2.8-2.4-5.6-3.6-8.4C416.2,150.2,419.3,151.3,422.4,152.4z"/>
	<path d="M387.8,117c-0.4-0.2-0.9-0.4-0.7-1C387.7,116.1,387.8,116.6,387.8,117z"/>
	<path d="M394.9,114.9c0.4,0.2,0.9,0.4,0.6,1C395,115.8,395,115.4,394.9,114.9z"/>
	<path d="M394.5,114.5c0.2,0.2,0.4,0.3,0.5,0.5C394.8,114.8,394.6,114.6,394.5,114.5z"/>
	<path d="M451.6,177.4c-4.5-5.9-9-11.7-13.6-17.6c12.7,6.7,23.6,15.6,32,27.4c-0.6,2.5-1.9,4.5-3.1,6.7c-2-2.9-4-5.8-6.4-8.3
		C457.7,182.7,455.4,179.3,451.6,177.4z"/>
	<path d="M139.2,159.4c-9.5,1.9-19,3.8-28.5,5.7c-0.1-2.3,0.3-4.6,0.8-6.8c0.2-0.1,0.5-0.2,0.4-0.5c0,0,0,0,0,0
		c4.5,0,8.7-1.6,13.1-2.3c6.3-1,12.6-2.6,19-3.3C142.3,154.6,140.8,157,139.2,159.4z"/>
	<path d="M432.2,163.5c0.2,0.2,0.4,0.4,0.7,0.6C432.5,164,432.2,163.9,432.2,163.5z"/>
</g>
</svg>
