<?xml version="1.0" encoding="utf-8"?>
<!-- Generator: Adobe Illustrator 22.1.0, SVG Export Plug-In . SVG Version: 6.00 Build 0)  -->
<svg version="1.1" id="Layer_1" xmlns="http://www.w3.org/2000/svg" xmlns:xlink="http://www.w3.org/1999/xlink" x="0px" y="0px"
	 viewBox="0 0 500 500" style="enable-background:new 0 0 500 500;" xml:space="preserve">
<style type="text/css">
	.st0{fill:#FFFFFF;}
	.st1{fill:#272626;}
	.st2{fill:#FECF0A;}
</style>
<g>
	<circle class="st0" cx="250" cy="250" r="247.5"/>
	<circle class="st1" cx="250" cy="250" r="225"/>
	<path class="st2" d="M250,47.5C138.1,47.5,47.5,138.1,47.5,250c0,111.9,90.6,202.6,202.5,202.6c111.9,0,202.5-90.7,202.5-202.6
		C452.5,138.1,361.9,47.5,250,47.5z"/>
	<path class="st1" d="M154.7,184.7c-15.5,0-28.1,12.6-28.1,28.1c0,15.6,12.6,28.1,28.1,28.1c15.5,0,28.2-12.6,28.2-28.1
		C182.9,197.3,170.3,184.7,154.7,184.7z"/>
	<path class="st1" d="M345.2,184.7c-15.5,0-28.1,12.6-28.1,28.1c0,15.6,12.6,28.1,28.1,28.1c15.5,0,28.1-12.6,28.1-28.1
		C373.3,197.3,360.7,184.7,345.2,184.7z"/>
	<path class="st1" d="M137.4,285.3c0,62.1,50.4,112.5,112.5,112.5c62.1,0,112.5-50.4,112.5-112.5H137.4z"/>
</g>
</svg>
