<?xml version="1.0" encoding="utf-8"?>
<!-- Generator: Adobe Illustrator 22.1.0, SVG Export Plug-In . SVG Version: 6.00 Build 0)  -->
<svg version="1.1" id="Layer_1" xmlns="http://www.w3.org/2000/svg" xmlns:xlink="http://www.w3.org/1999/xlink" x="0px" y="0px"
	 viewBox="0 0 500 500" style="enable-background:new 0 0 500 500;" xml:space="preserve">
<style type="text/css">
	.st0{fill:#FFFFFF;}
	.st1{fill:#272626;}
	.st2{fill:#FECF0A;}
</style>
<path class="st0" d="M250,498.1c137,0,248.1-111.1,248.1-248.1C498.1,113,387,1.9,250,1.9S1.9,113,1.9,250
	C1.9,387,113,498.1,250,498.1"/>
<circle class="st1" cx="250" cy="250" r="225.5"/>
<path class="st2" d="M250,47C137.9,47,47,137.9,47,250.1c0,112,90.9,203,203,203c112.2,0,203-90.9,203-203
	C453,137.9,362.2,47,250,47z"/>
<g>
	<g>
		<path class="st1" d="M154.6,188.5c-15.6,0-28.1,12.6-28.1,28.1c0,15.6,12.6,28.1,28.1,28.1c15.6,0,28.2-12.6,28.2-28.1
			C182.8,201.1,170.1,188.5,154.6,188.5z"/>
		<path class="st1" d="M345.4,188.5c-15.6,0-28.1,12.6-28.1,28.1c0,15.6,12.6,28.1,28.1,28.1c15.6,0,28.1-12.6,28.1-28.1
			C373.6,201.1,361,188.5,345.4,188.5z"/>
	</g>
	<g>
		
			<rect x="338" y="121.9" transform="matrix(0.3435 -0.9392 0.9392 0.3435 72.404 437.6741)" class="st1" width="22.6" height="90.2"/>
		
			<rect x="105.6" y="155.8" transform="matrix(0.9392 -0.3433 0.3433 0.9392 -48.1869 61.9058)" class="st1" width="90.2" height="22.6"/>
	</g>
	<path class="st1" d="M301.5,308.9l-36.2,27.6c-7.3,5.6-10.2,14.1-6.4,19c3.7,5.1,12.8,4.5,20.1-1.1l36.1-27.6
		c7.5-5.6,10.2-14.1,6.5-19C317.8,302.7,308.9,303.3,301.5,308.9z"/>
</g>
</svg>
