<?xml version="1.0" encoding="utf-8"?>
<!-- Generator: Adobe Illustrator 22.1.0, SVG Export Plug-In . SVG Version: 6.00 Build 0)  -->
<svg version="1.1" id="Layer_1" xmlns="http://www.w3.org/2000/svg" xmlns:xlink="http://www.w3.org/1999/xlink" x="0px" y="0px"
	 viewBox="0 0 500 500" style="enable-background:new 0 0 500 500;" xml:space="preserve">
<style type="text/css">
	.st0{fill:#010101;}
</style>
<g>
	<path class="st0" d="M250,497.6c-66.2,0-128.3-25.8-175.1-72.5C28.1,378.3,2.4,316.2,2.4,250S28.1,121.7,74.9,74.9
		C121.6,28.1,183.8,2.4,250,2.4c66.2,0,128.3,25.8,175.1,72.5c46.8,46.8,72.5,109,72.5,175.1s-25.8,128.3-72.5,175.1
		C378.3,471.9,316.1,497.6,250,497.6z M250,18.9c-61.7,0-119.8,24-163.4,67.7C42.9,130.2,18.9,188.3,18.9,250s24,119.8,67.7,163.4
		c43.7,43.7,101.7,67.7,163.4,67.7c61.7,0,119.8-24,163.4-67.7c43.7-43.7,67.7-101.7,67.7-163.4s-24-119.8-67.7-163.4l0,0
		C369.8,42.9,311.7,18.9,250,18.9z"/>
	<path class="st0" d="M365.6,258.3H134.4c-4.6,0-8.3-3.7-8.3-8.3s3.7-8.3,8.3-8.3h231.1c4.6,0,8.3,3.7,8.3,8.3
		S370.1,258.3,365.6,258.3z"/>
	<path class="st0" d="M250,373.8c-4.6,0-8.3-3.7-8.3-8.3V134.4c0-4.6,3.7-8.3,8.3-8.3c4.6,0,8.3,3.7,8.3,8.3v231.1
		C258.3,370.1,254.6,373.8,250,373.8z"/>
</g>
</svg>
