<?xml version="1.0" encoding="utf-8"?>
<!-- Generator: Adobe Illustrator 22.1.0, SVG Export Plug-In . SVG Version: 6.00 Build 0)  -->
<svg version="1.1" id="Layer_1" xmlns="http://www.w3.org/2000/svg" xmlns:xlink="http://www.w3.org/1999/xlink" x="0px" y="0px"
	 viewBox="0 0 500 500" style="enable-background:new 0 0 500 500;" xml:space="preserve">
<style type="text/css">
	.st0{fill:#010101;}
</style>
<g>
	<path class="st0" d="M398.5,497.5c-47.7,0-136.3-47.7-243.5-155c-54.3-54.3-99.2-111.4-126.4-160.8C-0.6,129-6.2,91.3,12.3,72.8
		c0.2-0.1,0.7-0.7,0.9-0.9L86.4,9.3c1.7-1.4,3.8-2.1,6-1.9c2.2,0.2,4.2,1.2,5.6,2.9l90,106.4c2.4,2.8,2.6,6.8,0.6,9.8l-45.4,68.1
		l162.3,162.3l68.1-45.4c3-2,7-1.8,9.8,0.6l106.4,90c1.7,1.4,2.7,3.4,2.9,5.6c0.2,2.2-0.5,4.3-1.9,6l-62.5,73.3
		c-0.1,0.1-0.6,0.7-0.7,0.8C420.9,494.2,411.1,497.5,398.5,497.5z M24.2,84c-0.1,0.1-0.2,0.3-0.3,0.3c-12.3,12.3-5.2,45.7,19,89.6
		C69.4,222,113.3,277.8,166.5,331c116.2,116.2,224.5,169.9,249.1,145.3l57.2-67.1l-95.4-80.7l-68.5,45.7c-3.2,2.2-7.6,1.7-10.3-1
		L126.8,201.3c-2.8-2.8-3.2-7.1-1-10.3l45.7-68.5L90.7,27.1L24.2,84z"/>
	<g>
		<g>
			<path class="st0" d="M484.4,138.3c-4.5,0-8.2-3.7-8.2-8.2V23.7H369.9c-4.5,0-8.2-3.7-8.2-8.2s3.7-8.2,8.2-8.2h114.5
				c4.5,0,8.2,3.7,8.2,8.2v114.5C492.6,134.6,488.9,138.3,484.4,138.3z"/>
			<path class="st0" d="M304.4,203.7c-2.1,0-4.2-0.8-5.8-2.4c-3.2-3.2-3.2-8.4,0-11.6l180-180c3.2-3.2,8.4-3.2,11.6,0
				c3.2,3.2,3.2,8.4,0,11.6l-180,180C308.6,202.9,306.5,203.7,304.4,203.7z"/>
		</g>
	</g>
</g>
</svg>
