<?xml version="1.0" encoding="utf-8"?>
<!-- Generator: Adobe Illustrator 22.1.0, SVG Export Plug-In . SVG Version: 6.00 Build 0)  -->
<svg version="1.1" id="Layer_1" xmlns="http://www.w3.org/2000/svg" xmlns:xlink="http://www.w3.org/1999/xlink" x="0px" y="0px"
	 viewBox="0 0 500 500" style="enable-background:new 0 0 500 500;" xml:space="preserve">
<style type="text/css">
	.st0{fill-opacity:0.702;}
</style>
<path class="st0" d="M498.8,133.8c0-8-3.2-16.1-9-21.8l-43.7-43.6c-5.8-5.8-13.8-9-21.8-9c-8,0-16.1,3.2-21.8,9L191.9,279.2
	l-94.4-94.7c-5.8-5.8-13.8-9-21.8-9c-8,0-16.1,3.2-21.8,9l-43.6,43.6c-5.8,5.8-9,13.8-9,21.8c0,8,3.2,16,9,21.8L126.4,388l43.7,43.7
	c5.8,5.8,13.8,9,21.8,9c8,0,16.1-3.2,21.8-9l43.6-43.7l232.4-232.4C495.6,149.9,498.8,141.8,498.8,133.8z"/>
</svg>
