<?xml version="1.0" encoding="utf-8"?>
<!-- Generator: Adobe Illustrator 22.1.0, SVG Export Plug-In . SVG Version: 6.00 Build 0)  -->
<svg version="1.1" id="Layer_1" xmlns="http://www.w3.org/2000/svg" xmlns:xlink="http://www.w3.org/1999/xlink" x="0px" y="0px"
	 viewBox="0 0 500 500" style="enable-background:new 0 0 500 500;" xml:space="preserve">
<style type="text/css">
	.st0{fill:#010101;}
	.st1{opacity:0.1;fill:none;stroke:#010101;stroke-width:2;stroke-linecap:round;stroke-linejoin:round;stroke-miterlimit:10;}
</style>
<g>
	<g>
		<g>
			<path class="st0" d="M307.2,495.2H28.6c-13.1,0-23.8-11-23.8-24.5V438c0-2.9,1.6-5.6,4.1-7.1l171.7-98.1c3.9-2.3,8.9-0.9,11.2,3
				c2.2,3.9,0.9,8.9-3,11.2L21.1,442.7v28c0,4.4,3.4,8.2,7.4,8.2h278.6c4.5,0,8.2,3.7,8.2,8.2C315.4,491.6,311.7,495.2,307.2,495.2z
				"/>
			<path class="st0" d="M372.6,380.8c-1.4,0-2.8-0.3-4-1.1L311.3,347c-3.9-2.2-5.3-7.2-3-11.2c2.2-3.9,7.2-5.3,11.2-3l57.3,32.7
				c3.9,2.2,5.3,7.2,3,11.2C378.2,379.3,375.4,380.8,372.6,380.8z"/>
			<path class="st1" d="M423.7,423.8"/>
		</g>
		<path class="st0" d="M405.3,495.2c-2.2,0-4.2-0.9-5.8-2.4l-65.4-65.4c-3.2-3.2-3.2-8.4,0-11.6s8.4-3.2,11.6,0l58.6,58.6
			l76.1-106.6c2.6-3.7,7.7-4.5,11.4-1.9c3.7,2.6,4.5,7.7,1.9,11.4L412,491.8c-1.4,2-3.6,3.2-6,3.4
			C405.8,495.2,405.5,495.2,405.3,495.2z"/>
	</g>
	<path class="st0" d="M184.6,348.1c-1.8,0-3.7-0.6-5.2-1.9c-63.8-52.6-61-143.1-60.9-146.9l0-93c0-0.5,0-0.9,0.1-1.3
		c8-48.2,62.1-99.8,129.9-100.2c0.2,0,0.5,0,0.7,0c55,0,120.7,40.3,130.6,100.2c0.1,0.4,0.1,0.9,0.1,1.3l0.1,93.3
		c0.2,3.4,4.3,94-59.6,146.6c-3.5,2.9-8.6,2.4-11.5-1.1c-2.9-3.5-2.4-8.6,1.1-11.5c57.6-47.4,53.7-132.7,53.6-133.6l-0.1-93.1
		C354.9,56.6,297,21.5,250,21.1c-0.2,0-0.5,0-0.7,0c-47.1,0-105.5,35.2-114.4,85.9l-0.1,92.6c0,1.2-2.5,86.6,55,134
		c3.5,2.9,4,8,1.1,11.5C189.3,347.1,187,348.1,184.6,348.1z"/>
</g>
</svg>
