<?xml version="1.0" encoding="utf-8"?>
<!-- Generator: Adobe Illustrator 22.1.0, SVG Export Plug-In . SVG Version: 6.00 Build 0)  -->
<svg version="1.1" id="Layer_1" xmlns="http://www.w3.org/2000/svg" xmlns:xlink="http://www.w3.org/1999/xlink" x="0px" y="0px"
	 viewBox="0 0 500 500" style="enable-background:new 0 0 500 500;" xml:space="preserve">
<style type="text/css">
	.st0{fill:#010101;}
</style>
<g>
	<g>
		<path class="st0" d="M407.8,492.1H42.2c-10.9,0-19.8-9.1-19.8-20.3v-27c0-2.5,1.4-4.7,3.5-5.9l148.6-81c3.3-1.8,7.4-0.6,9.2,2.7
			c1.8,3.3,0.6,7.4-2.7,9.2l-145,79.1v23c0,3.7,2.8,6.8,6.3,6.8h365.5c3.5,0,6.3-3,6.3-6.8v-23l-144.8-79.1
			c-3.3-1.8-4.5-5.9-2.7-9.2c1.8-3.3,5.9-4.5,9.2-2.7l148.3,81c2.2,1.2,3.5,3.5,3.5,5.9v27C427.6,483,418.7,492.1,407.8,492.1z"/>
		<path class="st0" d="M177.7,370.5c-1.2,0-2.5-0.3-3.6-1.1c-56.5-36-57.1-118.1-57.1-121.6l0.1-77.1c0-0.4,0-0.7,0.1-1.1
			c6.6-39.9,51.3-82.5,107.4-82.8c3.9-0.2,7.2,2.9,7.2,6.7v0c0,3.7-3,6.8-6.8,6.8c-38.9,0-87.2,29.1-94.5,70.9l-0.1,76.5
			c0,0.8,0.7,78.2,50.9,110.2c3.1,2,4.1,6.2,2.1,9.3C182.1,369.4,180,370.5,177.7,370.5z"/>
		<path class="st0" d="M272.5,370.5c-2.3,0-4.5-1.2-5.8-3.3c-1.9-3.2-0.9-7.3,2.3-9.3c49.8-29.8,50.5-109.3,50.5-110.1
			c0-3.7,3-6.7,6.8-6.7c0,0,0,0,0,0c3.7,0,6.7,3,6.7,6.7c0,3.6-0.6,88-57.1,121.7C274.9,370.2,273.7,370.5,272.5,370.5z"/>
	</g>
	<g>
		<path class="st0" d="M356.7,227.2c-29.8,0-57.7-11.6-78.8-32.6c-21-21-32.6-49-32.6-78.8c0-29.8,11.6-57.7,32.6-78.8
			c21-21,49-32.6,78.8-32.6c29.8,0,57.7,11.6,78.8,32.6l0,0l0,0c21,21,32.6,49,32.6,78.8c0,29.8-11.6,57.7-32.6,78.8
			C414.4,215.6,386.4,227.2,356.7,227.2z M356.7,17.9c-26.2,0-50.8,10.2-69.2,28.7c-18.5,18.5-28.7,43.1-28.7,69.2
			c0,26.2,10.2,50.7,28.7,69.2c18.5,18.5,43.1,28.7,69.2,28.7c26.2,0,50.7-10.2,69.2-28.7c18.5-18.5,28.7-43.1,28.7-69.2
			c0-26.2-10.2-50.7-28.7-69.2l0,0C407.4,28,382.8,17.9,356.7,17.9z"/>
		<path class="st0" d="M356.7,159.7c-1.8,0-3.5-0.7-4.8-2c-1.2-1.3-2-3-2-4.8c0-1.8,0.7-3.5,2-4.8c2.6-2.5,7-2.5,9.6,0
			c1.2,1.3,2,3,2,4.8c0,1.8-0.7,3.5-2,4.8C360.2,158.9,358.4,159.7,356.7,159.7z"/>
		<path class="st0" d="M356.7,139.4c-3.7,0-6.8-3-6.8-6.8V78.7c0-3.7,3-6.8,6.8-6.8c3.7,0,6.8,3,6.8,6.8v53.9
			C363.4,136.4,360.4,139.4,356.7,139.4z"/>
	</g>
</g>
</svg>
