<?xml version="1.0" encoding="utf-8"?>
<!-- Generator: Adobe Illustrator 22.1.0, SVG Export Plug-In . SVG Version: 6.00 Build 0)  -->
<svg version="1.1" id="Layer_1" xmlns="http://www.w3.org/2000/svg" xmlns:xlink="http://www.w3.org/1999/xlink" x="0px" y="0px"
	 viewBox="0 0 500 500" style="enable-background:new 0 0 500 500;" xml:space="preserve">
<style type="text/css">
	.st0{fill:#010101;}
</style>
<g>
	<path class="st0" d="M250,495.3C114.7,495.3,4.7,385.3,4.7,250S114.7,4.7,250,4.7s245.3,110,245.3,245.3S385.3,495.3,250,495.3z
		 M250,21.1C123.8,21.1,21.1,123.8,21.1,250S123.8,478.9,250,478.9S478.9,376.2,478.9,250S376.2,21.1,250,21.1z"/>
	<path class="st0" d="M250,258.2c-4.5,0-8.2-3.7-8.2-8.2V102.8c0-4.5,3.7-8.2,8.2-8.2s8.2,3.7,8.2,8.2V250
		C258.2,254.5,254.5,258.2,250,258.2z"/>
	<path class="st0" d="M331.8,356.3c-2.3,0-4.7-1-6.3-2.9l-81.8-98.1c-2.9-3.5-2.4-8.6,1-11.5c3.5-2.9,8.6-2.4,11.5,1l81.8,98.1
		c2.9,3.5,2.4,8.6-1,11.5C335.5,355.7,333.6,356.3,331.8,356.3z"/>
</g>
</svg>
