<?xml version="1.0" encoding="utf-8"?>
<!-- Generator: Adobe Illustrator 22.1.0, SVG Export Plug-In . SVG Version: 6.00 Build 0)  -->
<svg version="1.1" id="Layer_1" xmlns="http://www.w3.org/2000/svg" xmlns:xlink="http://www.w3.org/1999/xlink" x="0px" y="0px"
	 viewBox="0 0 500 500" style="enable-background:new 0 0 500 500;" xml:space="preserve">
<style type="text/css">
	.st0{fill:#010101;}
	.st1{fill:none;stroke:#010101;stroke-width:2;stroke-linecap:round;stroke-linejoin:round;stroke-miterlimit:10;}
</style>
<g>
	<g>
		<path class="st0" d="M182.4,387.5H11.8c-5.1,0-9.2-4.2-9.2-9.5v-12.6c0-1.2,0.6-2.2,1.6-2.8l69.4-37.8c1.5-0.8,3.4-0.3,4.3,1.3
			c0.8,1.5,0.3,3.4-1.3,4.3L8.8,367.3V378c0,1.7,1.3,3.2,2.9,3.2h170.7c1.6,0,2.9-1.4,2.9-3.2v-10.7l-67.6-36.9
			c-1.5-0.8-2.1-2.7-1.3-4.3s2.7-2.1,4.3-1.3l69.3,37.8c1,0.6,1.6,1.6,1.6,2.8V378C191.7,383.3,187.5,387.5,182.4,387.5z"/>
		<path class="st0" d="M119.3,330.8c-1.1,0-2.1-0.5-2.7-1.5c-0.9-1.5-0.4-3.4,1.1-4.3c23.3-13.9,23.6-51,23.6-51.4l0-35.7
			c-3.4-19.4-25.7-33-43.8-33.1c-0.1,0-0.2,0-0.3,0c-18.2,0-40.7,13.6-44.1,33.1l0,35.7c0,0.4,0.3,36.5,23.8,51.4
			c1.5,0.9,1.9,2.9,1,4.4c-0.9,1.5-2.9,1.9-4.4,1c-26.4-16.8-26.7-55.1-26.7-56.8l0-36c0-0.2,0-0.3,0-0.5
			c3.1-18.6,23.9-38.5,50.1-38.6c0.1,0,0.2,0,0.3,0c26.3,0,47.3,20,50.4,38.6c0,0.2,0,0.3,0,0.5l0,36c0,1.7-0.3,41.1-26.7,56.8
			C120.4,330.6,119.8,330.8,119.3,330.8z"/>
	</g>
	<g>
		<g>
			<path class="st1" d="M402.9,208.7"/>
			<path class="st1" d="M402.9,208.7"/>
			<path class="st0" d="M488.2,386.8H317.6c-5.1,0-9.2-4.1-9.2-9.2v-12.2c0-1.2,0.6-2.2,1.6-2.8l61.7-33.7c2.3-1.3,3.8-2.2,4.7-2.8
				c-1.2-0.5-2.8-0.9-4.3-1.2l-35.8-5.2c-1.3-0.2-2.3-1.1-2.6-2.4c-0.3-1.3,0.2-2.6,1.2-3.3c19.8-14.1,20.7-74.9,20.7-75.5
				c0-1.7,1.5-3.1,3.2-3.1c1.7,0,3.1,1.4,3.1,3.2c0,2.4-0.9,54.9-18.4,75.8l29.4,4.3c1.1,0.2,11,1.7,11,7c0,3.1-3.3,5.4-9.3,8.7
				l-60,32.8v10.3c0,1.6,1.3,2.9,2.9,2.9h170.7c1.6,0,2.9-1.3,2.9-2.9v-10.3l-60.1-32.8c-6.2-3.4-9.3-5.6-9.3-8.7
				c0-5.3,9.9-6.9,11.1-7l29.4-4.3c-17.5-21.1-18.3-74.6-18.4-77.1c0-1.7,1.4-3.2,3.1-3.2c1.7,0,3.2,1.4,3.2,3.1
				c0,0.6,1,62.6,20.7,76.8c1,0.7,1.5,2.1,1.2,3.3c-0.3,1.2-1.3,2.2-2.6,2.4l-35.8,5.2c-1.6,0.2-3.2,0.7-4.4,1.2
				c0.9,0.6,2.4,1.6,4.7,2.8l61.7,33.7c1,0.6,1.6,1.6,1.6,2.8v12.2C497.5,382.6,493.3,386.8,488.2,386.8z"/>
		</g>
		<path class="st0" d="M358.8,241.7c-0.2,0-0.4,0-0.5,0c-1.7-0.3-2.9-1.9-2.6-3.6c4-23.1,24.3-40.4,47.2-40.4
			c23.4,0,43.3,16.5,47.2,39.2c0.3,1.7-0.8,3.3-2.6,3.6c-1.7,0.3-3.3-0.8-3.6-2.6c-3.4-19.7-20.7-33.9-41-33.9
			c-19.9,0-37.5,15.1-41,35.2C361.6,240.6,360.3,241.7,358.8,241.7z"/>
	</g>
	<g>
		<path class="st0" d="M166.5,257.5c-1.2,0-2.4-0.7-2.9-1.9c-0.5-1.2-0.3-2.6,0.7-3.5c0.1-0.1,12.8-12.8,14.7-30.8
			c-18.5-11.5-28.2-27.8-28.2-47.3c0-34,33.9-61.6,75.7-61.6s75.7,27.6,75.7,61.6c0,33.8-33.9,61.4-75.7,61.4h0h-14.6
			c-16.5,19.7-43.9,22-45.1,22.1C166.6,257.5,166.5,257.5,166.5,257.5z M226.4,118.8c-38.2,0-69.4,24.8-69.4,55.3
			c0,17.7,9.3,32.6,26.8,42.9c1,0.6,1.6,1.7,1.5,2.9c-0.8,13-6.6,23.6-11.1,30c9.1-2.1,23.9-7.3,33.5-19.5c0.6-0.8,1.5-1.2,2.5-1.2
			h16.1c38.2,0,69.4-24.7,69.4-55.1C295.7,143.6,264.6,118.8,226.4,118.8z"/>
		<path class="st0" d="M324.1,289c-0.1,0-0.2,0-0.2,0c-1.2-0.1-28.6-2.3-45.1-22.1h-14.6c0,0,0,0,0,0c-18.8,0-34.3-4.5-46-13.2
			c-1.4-1-1.7-3-0.6-4.4c1-1.4,3-1.7,4.4-0.6c10.6,7.9,24.8,12,42.3,12h16.1c1,0,1.9,0.4,2.5,1.2c9.6,12.2,24.4,17.4,33.5,19.5
			c-4.5-6.4-10.3-16.9-11.1-30c-0.1-1.2,0.5-2.3,1.5-2.9c17.5-10.3,26.8-25.2,26.8-42.9c0-8.4-5.5-21.6-17.7-30.7
			c-1.4-1-1.7-3-0.6-4.4c1-1.4,3-1.7,4.4-0.6c13.9,10.5,20.2,25.5,20.2,35.7c0,19.5-9.7,35.8-28.2,47.3
			c1.9,17.9,14.5,30.6,14.7,30.8c0.9,0.9,1.2,2.3,0.7,3.5C326.4,288.3,325.3,289,324.1,289z"/>
	</g>
</g>
</svg>
