<?xml version="1.0" encoding="utf-8"?>
<!-- Generator: Adobe Illustrator 22.1.0, SVG Export Plug-In . SVG Version: 6.00 Build 0)  -->
<svg version="1.1" id="Layer_1" xmlns="http://www.w3.org/2000/svg" xmlns:xlink="http://www.w3.org/1999/xlink" x="0px" y="0px"
	 viewBox="0 0 500 500" style="enable-background:new 0 0 500 500;" xml:space="preserve">
<style type="text/css">
	.st0{fill:#010101;}
</style>
<g>
	<g>
		<g>
			<path class="st0" d="M373.9,496.8c-4.5,0-8.2-3.7-8.2-8.2V11.4c0-4.5,3.7-8.2,8.2-8.2c4.5,0,8.2,3.7,8.2,8.2v477.1
				C382.1,493.1,378.4,496.8,373.9,496.8z"/>
			<path class="st0" d="M126.1,101.9H60.3c-4.5,0-8.2-3.7-8.2-8.2c0-4.5,3.7-8.2,8.2-8.2h65.8c4.5,0,8.2,3.7,8.2,8.2
				C134.4,98.2,130.7,101.9,126.1,101.9z"/>
			<path class="st0" d="M126.1,200.6H60.3c-4.5,0-8.2-3.7-8.2-8.2c0-4.5,3.7-8.2,8.2-8.2h65.8c4.5,0,8.2,3.7,8.2,8.2
				C134.4,197,130.7,200.6,126.1,200.6z"/>
		</g>
	</g>
	<g>
		<path class="st0" d="M407.3,496.8H94.2c-4.5,0-8.2-3.7-8.2-8.2c0-4.5,3.7-8.2,8.2-8.2h313.1c13.3,0,24.1-10.6,24.1-23.6V43.2
			c0-13-10.8-23.6-24.1-23.6H94.2c-4.5,0-8.2-3.7-8.2-8.2s3.7-8.2,8.2-8.2h313.1c22.4,0,40.6,18,40.6,40v413.5
			C447.9,478.8,429.7,496.8,407.3,496.8z"/>
		<path class="st0" d="M94.2,496.8c-4.5,0-8.2-3.7-8.2-8.2V11.4c0-4.5,3.7-8.2,8.2-8.2c4.5,0,8.2,3.7,8.2,8.2v477.1
			C102.4,493.1,98.7,496.8,94.2,496.8z"/>
	</g>
	<path class="st0" d="M126.1,299.4H60.3c-4.5,0-8.2-3.7-8.2-8.2s3.7-8.2,8.2-8.2h65.8c4.5,0,8.2,3.7,8.2,8.2
		S130.7,299.4,126.1,299.4z"/>
	<path class="st0" d="M126.1,398.1H60.3c-4.5,0-8.2-3.7-8.2-8.2s3.7-8.2,8.2-8.2h65.8c4.5,0,8.2,3.7,8.2,8.2
		S130.7,398.1,126.1,398.1z"/>
</g>
</svg>
