<?xml version="1.0" encoding="utf-8"?>
<!-- Generator: Adobe Illustrator 22.1.0, SVG Export Plug-In . SVG Version: 6.00 Build 0)  -->
<svg version="1.1" id="Layer_1" xmlns="http://www.w3.org/2000/svg" xmlns:xlink="http://www.w3.org/1999/xlink" x="0px" y="0px"
	 viewBox="0 0 500 500" style="enable-background:new 0 0 500 500;" xml:space="preserve">
<style type="text/css">
	.st0{fill:#010101;}
</style>
<g>
	<path class="st0" d="M484,380.5c-3.5,0-6.9-1.3-9.6-4l-234-234c-5.3-5.3-5.3-13.9,0-19.1c5.3-5.3,13.9-5.3,19.1,0l234,234
		c5.3,5.3,5.3,13.9,0,19.1C490.9,379.2,487.4,380.5,484,380.5z"/>
	<path class="st0" d="M16,380.5c-3.5,0-6.9-1.3-9.6-4c-5.3-5.3-5.3-13.9,0-19.1l234-234c5.3-5.3,13.9-5.3,19.1,0
		c5.3,5.3,5.3,13.9,0,19.1l-234,234C23,379.2,19.5,380.5,16,380.5z"/>
</g>
</svg>
