<?xml version="1.0" encoding="utf-8"?>
<!-- Generator: Adobe Illustrator 22.1.0, SVG Export Plug-In . SVG Version: 6.00 Build 0)  -->
<svg version="1.1" id="Layer_1" xmlns="http://www.w3.org/2000/svg" xmlns:xlink="http://www.w3.org/1999/xlink" x="0px" y="0px"
	 viewBox="0 0 500 500" style="enable-background:new 0 0 500 500;" xml:space="preserve">
<style type="text/css">
	.st0{fill:#010101;}
</style>
<g>
	<path class="st0" d="M46.9,403.6c-3.2,0-6.1-1.9-7.4-4.8c-1.4-3.1-0.7-6.8,1.7-9.1c0.3-0.3,32.9-33,37.8-79.3
		c-47.6-29.6-72.8-71.7-72.8-122c0-87.5,87.5-158.8,195.1-158.8s195.1,71.2,195.1,158.8c0,87.3-87.5,158.3-195.1,158.3h0h-37.7
		c-42.5,50.9-113.1,56.7-116.2,56.9C47.2,403.6,47.1,403.6,46.9,403.6z M201.3,45.9c-98.6,0-178.8,63.9-178.8,142.5
		c0,45.7,23.9,84,69.2,110.6c2.6,1.6,4.2,4.5,4,7.5c-2.1,33.6-17,60.8-28.7,77.3c23.5-5.4,61.7-18.7,86.4-50.3
		c1.5-2,3.9-3.1,6.4-3.1h41.5c98.6,0,178.8-63.7,178.8-142C380.1,109.9,299.9,45.9,201.3,45.9z"/>
	<path class="st0" d="M453.3,484.9c-0.2,0-0.4,0-0.6,0c-3-0.2-73.7-6-116.2-56.9h-37.7c0,0,0,0,0,0c-48.5,0-88.4-11.5-118.6-34.1
		c-3.6-2.7-4.3-7.8-1.6-11.4c2.7-3.6,7.8-4.3,11.4-1.6c27.3,20.5,64,30.9,108.9,30.9h41.5c2.5,0,4.9,1.1,6.4,3.1
		c24.8,31.6,63,44.9,86.4,50.3c-11.7-16.5-26.6-43.7-28.7-77.3c-0.2-3.1,1.3-6,4-7.5c45.2-26.7,69.2-64.9,69.2-110.6
		c0-21.6-14.2-55.6-45.5-79.1c-3.6-2.7-4.3-7.8-1.6-11.4c2.7-3.6,7.8-4.3,11.4-1.6c35.9,27,52,65.7,52,92.1
		c0,50.3-25.1,92.3-72.8,122c4.9,46.3,37.5,78.9,37.8,79.3c2.4,2.4,3.1,6,1.7,9.1C459.4,483.1,456.5,484.9,453.3,484.9z"/>
</g>
</svg>
