<?xml version="1.0" encoding="utf-8"?>
<!-- Generator: Adobe Illustrator 22.1.0, SVG Export Plug-In . SVG Version: 6.00 Build 0)  -->
<svg version="1.1" id="Layer_1" xmlns="http://www.w3.org/2000/svg" xmlns:xlink="http://www.w3.org/1999/xlink" x="0px" y="0px"
	 viewBox="0 0 500 500" style="enable-background:new 0 0 500 500;" xml:space="preserve">
<style type="text/css">
	.st0{fill:#010101;}
	.st1{opacity:0.1;fill:none;stroke:#010101;stroke-width:2;stroke-linecap:round;stroke-linejoin:round;stroke-miterlimit:10;}
	.st2{fill:none;stroke:#010101;stroke-width:2;stroke-linecap:round;stroke-linejoin:round;stroke-miterlimit:10;}
</style>
<g>
	<g>
		<g>
			<g>
				<g>
					<path class="st0" d="M335.6,484.1H33.1c-12.7,0-23.1-10.7-23.1-23.8v-31.8c0-2.9,1.5-5.5,4-6.9l166.8-95.3
						c3.8-2.2,8.7-0.9,10.8,3c2.2,3.8,0.9,8.7-3,10.8l-162.8,93v27.2c0,4.3,3.3,7.9,7.2,7.9h302.5c4.4,0,7.9,3.6,7.9,7.9
						S340,484.1,335.6,484.1z"/>
					<path class="st0" d="M351.5,357c-1,0-2-0.2-2.9-0.6l-39.8-15.9c-4.1-1.6-6.1-6.3-4.4-10.3c1.6-4.1,6.2-6.1,10.3-4.4l39.8,15.9
						c4.1,1.6,6.1,6.3,4.4,10.3C357.7,355.1,354.7,357,351.5,357z"/>
				</g>
			</g>
			<path class="st0" d="M311.8,341.1c-2.3,0-4.6-1-6.1-2.9c-2.8-3.4-2.3-8.4,1.1-11.2c55.9-46.1,52.1-128.9,52.1-129.8l-0.1-90.4
				C350.2,58,294,23.8,248.3,23.5c-0.2,0-0.5,0-0.8,0c-45.8,0-102.5,34.2-111.1,83.4l-0.1,90c0,1.1-2.4,84.1,53.4,130.2
				c3.4,2.8,3.9,7.8,1.1,11.2c-2.8,3.4-7.8,3.9-11.2,1.1c-62-51.1-59.3-139-59.2-142.7l0-90.4c0-0.4,0-0.9,0.1-1.3
				C128.5,58.1,181,8,246.8,7.6c0.3,0,0.5,0,0.8,0c66.2,0,119.1,50.3,126.9,97.3c0.1,0.4,0.1,0.9,0.1,1.3l0.1,90.7
				c0.2,3.3,4.2,91.3-57.9,142.5C315.3,340.6,313.5,341.1,311.8,341.1z"/>
		</g>
		<g>
			<path class="st1" d="M414.9,412.6"/>
			<path class="st1" d="M415.1,412.6"/>
			<path class="st2" d="M415.1,476.2"/>
			<path class="st2" d="M415.1,349.1"/>
			<path class="st2" d="M351.5,412.6"/>
			<path class="st2" d="M478.6,412.6"/>
		</g>
	</g>
	<g>
		<path class="st0" d="M368,465.2c-3,0-5.8-0.6-8.5-1.8c-0.2-0.1-0.6-0.3-0.8-0.4l-41.4-23c-1.8-1-3.2-2.7-3.8-4.8
			c-0.6-2-0.3-4.2,0.7-6.1l33.6-59.7c1.7-3.1,5.3-4.6,8.7-3.8l36,8.5l44.3-96.9l-30-21.7c-2.9-2.1-4-5.8-2.8-9.1l23.2-64.5
			c0.7-2,2.2-3.6,4.1-4.5c1.9-0.9,4.1-1,6.1-0.3l44.5,16.2c0.2,0.1,0.6,0.3,0.8,0.3c13.7,6.3,18.1,25.8,13.2,58
			c-4.3,28.2-15.5,62.8-31.4,97.6C437,409.7,396.7,465.2,368,465.2z M366,448.8c11.4,3.9,48.7-28.6,84.2-106.1
			c15.3-33.5,26-66.6,30.1-93.4c4.5-29.1-0.7-39.6-4-41.1l-36.7-13.4L421,246.1l30.4,22c3.1,2.2,4.1,6.3,2.6,9.7l-49.7,108.7
			c-1.6,3.4-5.3,5.3-9,4.4l-36.6-8.6L332,430L366,448.8z"/>
	</g>
</g>
</svg>
