<?xml version="1.0" encoding="utf-8"?>
<!-- Generator: Adobe Illustrator 22.1.0, SVG Export Plug-In . SVG Version: 6.00 Build 0)  -->
<svg version="1.1" id="Layer_1" xmlns="http://www.w3.org/2000/svg" xmlns:xlink="http://www.w3.org/1999/xlink" x="0px" y="0px"
	 viewBox="0 0 500 500" style="enable-background:new 0 0 500 500;" xml:space="preserve">
<style type="text/css">
	.st0{fill:none;stroke:#010101;stroke-width:2;stroke-linecap:round;stroke-linejoin:round;stroke-miterlimit:10;}
	.st1{fill:#010101;}
</style>
<g>
	<g>
		<path class="st0" d="M230.6,317.1"/>
	</g>
	<g>
		<g>
			<path class="st0" d="M314.1,91.7"/>
			<path class="st0" d="M314.1,91.7"/>
			<path class="st0" d="M397.8,145.9"/>
			<path class="st1" d="M475.9,429.3H152.3c-9.7,0-17.5-7.9-17.5-17.5v-23.1c0-2.2,1.2-4.2,3.1-5.2l117-63.8c4.4-2.4,7.2-4.1,9-5.4
				c-2.2-0.9-5.3-1.8-8.2-2.2l-67.9-9.9c-2.4-0.4-4.4-2.1-4.9-4.5c-0.6-2.4,0.4-4.9,2.3-6.3c37.5-26.8,39.3-141.9,39.3-143.1
				c0-3.3,2.6-6,6-5.9c3.3,0,5.9,2.7,5.9,6c-0.1,4.6-1.6,104.1-34.8,143.7l55.7,8.1c2.1,0.3,20.9,3.3,20.9,13.3
				c0,5.8-6.2,10.3-17.7,16.5l-113.8,62.1v19.6c0,3.1,2.5,5.6,5.6,5.6h323.6c3,0,5.6-2.6,5.6-5.6v-19.6l-113.9-62.1
				c-11.7-6.4-17.6-10.7-17.6-16.5c0-3.3,2.7-6,6-6c2.8,0,5.2,1.9,5.8,4.5c0.8,0.9,3.4,3,11.6,7.5l117,63.8c1.9,1,3.1,3.1,3.1,5.2
				v23.1C493.4,421.5,485.6,429.3,475.9,429.3z"/>
		</g>
		<path class="st1" d="M230.4,154.3c-0.3,0-0.7,0-1-0.1c-3.3-0.6-5.4-3.7-4.9-6.9c7.6-43.7,46.2-76.7,89.6-76.7
			c44.4,0,82,31.2,89.6,74.3c0.6,3.3-1.6,6.4-4.9,6.9c-3.3,0.6-6.4-1.6-6.9-4.9c-6.5-37.3-39.2-64.4-77.8-64.4
			c-37.7,0-71.1,28.7-77.8,66.8C235.8,152.3,233.3,154.3,230.4,154.3z"/>
	</g>
	<g>
		<path class="st1" d="M98.8,429.4L98.8,429.4l-78.1,0c-9.7,0-17.5-8-17.5-17.9v-23.9c0-2.2,1.2-4.2,3.1-5.2l131.5-71.7
			c2.9-1.6,6.5-0.5,8.1,2.4c1.6,2.9,0.5,6.5-2.4,8.1L15.1,391v20.3c0,3.3,2.5,6,5.6,6l78.1,0c3.3,0,6,2.7,6,6
			S102.1,429.4,98.8,429.4z"/>
		<path class="st1" d="M140.6,321.7c-1.1,0-2.2-0.3-3.2-0.9c-50-31.9-50.6-104.5-50.6-107.6l0.1-68.3c0-0.3,0-0.7,0.1-1
			c5.8-35.3,45.3-73,94.9-73.3c0.2,0,0.4,0,0.5,0c10.6,0,21.4,1.9,32.2,5.8c3.1,1.1,4.7,4.5,3.6,7.6c-1.1,3.1-4.5,4.8-7.6,3.6
			c-9.4-3.3-18.7-5-27.7-5.1c-0.2,0-0.3,0-0.5,0c-34.5,0-77.1,25.8-83.6,62.8l-0.1,67.7c0,0.7,0.6,69.2,45.1,97.5
			c2.8,1.8,3.6,5.5,1.8,8.3C144.5,320.8,142.6,321.7,140.6,321.7z"/>
	</g>
	<g>
		<g>
			<g>
				<path class="st1" d="M426.4,327.7c-2.4,0-4.7-1.5-5.6-3.9c-1.1-3.1,0.4-6.5,3.5-7.7c60.3-22.2,60.5-96.6,60.5-97.3
					c0-3.3,2.6-6,5.9-6c0,0,0,0,0,0c3.3,0,6,2.6,6,5.9c0,0.8,0.1,21.1-8.1,44.6c-11,31.5-31.8,53.7-60.1,64.1
					C427.8,327.6,427.1,327.7,426.4,327.7z"/>
				<path class="st1" d="M490.9,224.8c-3.3,0-6-2.7-6-6v-31.3h-9.8c-3.3,0-6-2.7-6-6s2.7-6,6-6h9.8c6.6,0,12,5.4,12,12v31.3
					C496.9,222.1,494.2,224.8,490.9,224.8z"/>
			</g>
			<g>
				<path class="st1" d="M426.4,327.7c-0.7,0-1.4-0.1-2.1-0.4c-28.3-10.4-49.1-32.6-60.1-64.1c-8.2-23.5-8.2-43.7-8.1-44.6
					c0-3.3,2.7-5.9,6-5.9c0,0,0,0,0,0c3.3,0,6,2.7,5.9,6c0,0.8,0.3,75.2,60.5,97.3c3.1,1.1,4.7,4.6,3.5,7.7
					C431.1,326.2,428.8,327.7,426.4,327.7z"/>
				<path class="st1" d="M361.9,224.8c-3.3,0-6-2.7-6-6v-31.3c0-6.6,5.4-12,12-12h9.8c3.3,0,6,2.7,6,6s-2.7,6-6,6h-9.8v31.3
					C367.9,222.1,365.2,224.8,361.9,224.8z"/>
			</g>
			<path class="st1" d="M474.9,187.5c-26.3,0-41.4-11.5-48.5-19.1c-7.1,7.6-22.3,19.1-48.5,19.1c-3.3,0-6-2.7-6-6s2.7-6,6-6
				c31.5,0,43.1-19.3,43.2-19.5c2.1-3.7,8.5-3.7,10.7,0c0.5,0.8,12.1,19.5,43.2,19.5c3.3,0,6,2.7,6,6S478.2,187.5,474.9,187.5z"/>
		</g>
	</g>
</g>
</svg>
