<?xml version="1.0" encoding="utf-8"?>
<!-- Generator: Adobe Illustrator 22.1.0, SVG Export Plug-In . SVG Version: 6.00 Build 0)  -->
<svg version="1.1" id="Layer_1" xmlns="http://www.w3.org/2000/svg" xmlns:xlink="http://www.w3.org/1999/xlink" x="0px" y="0px"
	 viewBox="0 0 500 500" style="enable-background:new 0 0 500 500;" xml:space="preserve">
<style type="text/css">
	.st0{fill:#010101;}
</style>
<g>
	<g>
		<path class="st0" d="M330,265.6c-2.4,0-4.7-1-6.3-2.9c-3-3.5-2.5-8.7,1-11.7l125.5-105.7c3.5-3,8.7-2.5,11.7,1
			c3,3.5,2.5,8.7-1,11.7L335.3,263.7C333.7,265,331.8,265.6,330,265.6z"/>
		<path class="st0" d="M291,271c-1.1,0-2.3-0.2-3.4-0.7l-101-45.8c-4.2-1.9-6-6.8-4.1-11c1.9-4.2,6.8-6,11-4.1l101,45.8
			c4.2,1.9,6,6.8,4.1,11C297.1,269.2,294.1,271,291,271z"/>
		<path class="st0" d="M44.5,355.6c-1.9,0-3.9-0.7-5.5-2.1c-3.4-3-3.8-8.3-0.7-11.7l109.9-124.6c3-3.4,8.2-3.8,11.7-0.7
			c3.4,3,3.8,8.3,0.7,11.7L50.7,352.8C49.1,354.6,46.8,355.6,44.5,355.6z"/>
	</g>
	<path class="st0" d="M30.6,391.8c-16,0-29-13-29-29s13-29,29-29s29,13,29,29S46.5,391.8,30.6,391.8z M30.6,350.4
		c-6.8,0-12.4,5.6-12.4,12.4s5.6,12.4,12.4,12.4S43,369.7,43,362.8S37.4,350.4,30.6,350.4z"/>
	<path class="st0" d="M171.3,234.5c-16,0-29-13-29-29s13-29,29-29s29,13,29,29S187.3,234.5,171.3,234.5z M171.3,193.1
		c-6.8,0-12.4,5.6-12.4,12.4s5.6,12.4,12.4,12.4s12.4-5.6,12.4-12.4S178.2,193.1,171.3,193.1z"/>
	<path class="st0" d="M312.1,300.7c-16,0-29-13-29-29c0-16,13-29,29-29s29,13,29,29C341.1,287.7,328.1,300.7,312.1,300.7z
		 M312.1,259.3c-6.8,0-12.4,5.6-12.4,12.4s5.6,12.4,12.4,12.4s12.4-5.6,12.4-12.4S319,259.3,312.1,259.3z"/>
	<path class="st0" d="M469.4,166.2c-16,0-29-13-29-29s13-29,29-29s29,13,29,29S485.4,166.2,469.4,166.2z M469.4,124.8
		c-6.8,0-12.4,5.6-12.4,12.4c0,6.8,5.6,12.4,12.4,12.4s12.4-5.6,12.4-12.4C481.9,130.3,476.3,124.8,469.4,124.8z"/>
</g>
</svg>
