<?xml version="1.0" encoding="utf-8"?>
<!-- Generator: Adobe Illustrator 22.1.0, SVG Export Plug-In . SVG Version: 6.00 Build 0)  -->
<svg version="1.1" id="Layer_1" xmlns="http://www.w3.org/2000/svg" xmlns:xlink="http://www.w3.org/1999/xlink" x="0px" y="0px"
	 viewBox="0 0 500 500" style="enable-background:new 0 0 500 500;" xml:space="preserve">
<style type="text/css">
	.st0{fill:#010101;}
</style>
<g>
	<g>
		<g>
			<path class="st0" d="M250,496.8C113.9,496.8,3.2,386.1,3.2,250S113.9,3.2,250,3.2S496.8,113.9,496.8,250S386.1,496.8,250,496.8z
				 M250,19.7C123,19.7,19.7,123,19.7,250S123,480.3,250,480.3S480.3,377,480.3,250S377,19.7,250,19.7z"/>
		</g>
		<g>
			<path class="st0" d="M250,315.8c-4.2,0-7.8-3.2-8.2-7.5c-0.1-1.7-3-41.2,36.7-74.9c15-12.8,20.9-25.2,20.9-44.3
				c0-29.9-22.1-54.2-49.4-54.2c-27.7,0-49.3,22.9-49.3,52.1c0,4.5-3.7,8.2-8.2,8.2c-4.5,0-8.2-3.7-8.2-8.2
				c0-38.5,28.9-68.6,65.8-68.6c36.3,0,65.8,31.7,65.8,70.7c0,24-8,41-26.7,56.9c-33.3,28.2-31,60.6-30.9,61c0.4,4.5-3,8.5-7.5,8.9
				C250.5,315.8,250.2,315.8,250,315.8z"/>
		</g>
	</g>
	<path class="st0" d="M249.3,389.9c-9.1,0-16.5-7.4-16.5-16.5s7.4-16.5,16.5-16.5c9.1,0,16.5,7.4,16.5,16.5S258.4,389.9,249.3,389.9
		z M249.3,373.4L249.3,373.4L249.3,373.4z"/>
</g>
</svg>
