<?xml version="1.0" encoding="utf-8"?>
<!-- Generator: Adobe Illustrator 22.1.0, SVG Export Plug-In . SVG Version: 6.00 Build 0)  -->
<svg version="1.1" id="Layer_1" xmlns="http://www.w3.org/2000/svg" xmlns:xlink="http://www.w3.org/1999/xlink" x="0px" y="0px"
	 viewBox="0 0 500 500" style="enable-background:new 0 0 500 500;" xml:space="preserve">
<style type="text/css">
	.st0{fill:#010101;}
</style>
<g>
	<g>
		<g>
			<path class="st0" d="M254.5,491.3c-3.3,0-6.3-2-7.5-5.3c-1.5-4.2,0.6-8.8,4.8-10.3c178.6-65.6,178.9-284.8,178.9-287
				c0-4.4,3.5-8,8-8.1c0,0,0,0,0.1,0c4.4,0,8,3.5,8,8c0,2.3-0.3,232.7-189.4,302.2C256.4,491.1,255.4,491.3,254.5,491.3z"/>
			<path class="st0" d="M439,196.9c-4.4,0-8-3.6-8-8V90.3h-37.1c-4.4,0-8-3.6-8-8c0-4.4,3.6-8,8-8H431c8.8,0,16,7.2,16,16v98.5
				C447,193.3,443.4,196.9,439,196.9z"/>
		</g>
		<g>
			<path class="st0" d="M254.5,491.3c-0.9,0-1.9-0.2-2.8-0.5C62.8,421.3,62.4,190.9,62.4,188.6c0-4.4,3.7-8.3,8.1-8
				c4.4,0,8,3.6,8,8.1c0,2.2,0.6,221.5,178.9,287c4.2,1.5,6.3,6.1,4.8,10.3C260.9,489.3,257.8,491.3,254.5,491.3z"/>
			<path class="st0" d="M70.1,196.9c-4.4,0-8-3.6-8-8V90.3c0-8.8,7.2-16,16-16h37.1c4.4,0,8,3.6,8,8c0,4.4-3.6,8-8,8H78.1v98.5
				C78.1,193.3,74.5,196.9,70.1,196.9z"/>
		</g>
		<path class="st0" d="M393.3,90.3c-82,0-123.9-40.6-138.8-59.2c-14.9,18.6-56.8,59.2-138.8,59.2c-4.4,0-8-3.6-8-8c0-4.4,3.6-8,8-8
			c94.6,0,130-57.9,131.4-60.4c1.4-2.4,4.1-4,6.9-4h1c2.9,0,5.5,1.5,6.9,4c1.4,2.4,36.8,60.3,131.4,60.3c4.4,0,8,3.6,8,8
			C401.4,86.7,397.8,90.3,393.3,90.3z"/>
	</g>
	<g>
		<path class="st0" d="M318.7,322.9c-2.1,0-4.1-0.8-5.7-2.3L184.7,192.2c-3.1-3.1-3.1-8.2,0-11.3s8.2-3.1,11.3,0l128.3,128.3
			c3.1,3.1,3.1,8.2,0,11.3C322.8,322.1,320.7,322.9,318.7,322.9z"/>
		<path class="st0" d="M190.4,322.9c-2.1,0-4.1-0.8-5.7-2.3c-3.1-3.1-3.1-8.2,0-11.3L313,180.9c3.1-3.1,8.2-3.1,11.3,0
			s3.1,8.2,0,11.3L196,320.5C194.5,322.1,192.4,322.9,190.4,322.9z"/>
	</g>
</g>
</svg>
