<?xml version="1.0" encoding="utf-8"?>
<!-- Generator: Adobe Illustrator 22.1.0, SVG Export Plug-In . SVG Version: 6.00 Build 0)  -->
<svg version="1.1" id="Layer_1" xmlns="http://www.w3.org/2000/svg" xmlns:xlink="http://www.w3.org/1999/xlink" x="0px" y="0px"
	 viewBox="0 0 500 500" style="enable-background:new 0 0 500 500;" xml:space="preserve">
<style type="text/css">
	.st0{fill:#010101;}
</style>
<g>
	<g>
		<g>
			<g>
				<path class="st0" d="M485.8,161.6H157.4c-4.7,0-8.4-3.8-8.4-8.4s3.8-8.4,8.4-8.4h328.5c4.7,0,8.4,3.8,8.4,8.4
					S490.5,161.6,485.8,161.6z"/>
			</g>
		</g>
		<g>
			<g>
				<path class="st0" d="M485.8,279.5H157.4c-4.7,0-8.4-3.8-8.4-8.4s3.8-8.4,8.4-8.4h328.5c4.7,0,8.4,3.8,8.4,8.4
					S490.5,279.5,485.8,279.5z"/>
			</g>
		</g>
		<g>
			<g>
				<path class="st0" d="M485.8,397.4H157.4c-4.7,0-8.4-3.8-8.4-8.4s3.8-8.4,8.4-8.4h328.5c4.7,0,8.4,3.8,8.4,8.4
					S490.5,397.4,485.8,397.4z"/>
			</g>
		</g>
	</g>
	<path class="st0" d="M22.6,170c-1.9,0-3.9-0.7-5.5-2c-3.5-3-3.9-8.3-0.9-11.9l50.5-59c3-3.5,8.4-3.9,11.9-0.9
		c3.5,3,3.9,8.3,0.9,11.9L29,167C27.3,169,25,170,22.6,170z"/>
	<path class="st0" d="M22.6,170c-3.1,0-6.1-1.7-7.5-4.7l-8.4-16.8c-2.1-4.2-0.4-9.2,3.8-11.3c4.2-2.1,9.2-0.4,11.3,3.8l8.4,16.8
		c2.1,4.2,0.4,9.2-3.8,11.3C25.2,169.7,23.9,170,22.6,170z"/>
	<path class="st0" d="M22.6,287.9c-1.9,0-3.9-0.7-5.5-2c-3.5-3-3.9-8.3-0.9-11.9l50.5-59c3-3.5,8.4-3.9,11.9-0.9
		c3.5,3,3.9,8.3,0.9,11.9L29,285C27.3,286.9,25,287.9,22.6,287.9z"/>
	<path class="st0" d="M22.6,287.9c-3.1,0-6.1-1.7-7.5-4.7l-8.4-16.8c-2.1-4.2-0.4-9.2,3.8-11.3c4.2-2.1,9.2-0.4,11.3,3.8l8.4,16.8
		c2.1,4.2,0.4,9.2-3.8,11.3C25.2,287.6,23.9,287.9,22.6,287.9z"/>
	<path class="st0" d="M22.6,405.8c-1.9,0-3.9-0.7-5.5-2c-3.5-3-3.9-8.3-0.9-11.9l50.5-59c3-3.5,8.4-3.9,11.9-0.9
		c3.5,3,3.9,8.3,0.9,11.9l-50.5,59C27.3,404.8,25,405.8,22.6,405.8z"/>
	<path class="st0" d="M22.6,405.8c-3.1,0-6.1-1.7-7.5-4.7l-8.4-16.8c-2.1-4.2-0.4-9.2,3.8-11.3c4.2-2.1,9.2-0.4,11.3,3.8l8.4,16.8
		c2.1,4.2,0.4,9.2-3.8,11.3C25.2,405.5,23.9,405.8,22.6,405.8z"/>
</g>
</svg>
