<?xml version="1.0" encoding="utf-8"?>
<!-- Generator: Adobe Illustrator 22.1.0, SVG Export Plug-In . SVG Version: 6.00 Build 0)  -->
<svg version="1.1" id="Layer_1" xmlns="http://www.w3.org/2000/svg" xmlns:xlink="http://www.w3.org/1999/xlink" x="0px" y="0px"
	 viewBox="0 0 500 500" style="enable-background:new 0 0 500 500;" xml:space="preserve">
<style type="text/css">
	.st0{fill:#010101;}
</style>
<g>
	<path class="st0" d="M109.1,498.7c-2.1,0-4.2-0.8-5.9-2.4L36.9,430c-3.2-3.2-3.2-8.5,0-11.7c3.2-3.2,8.5-3.2,11.7,0l66.3,66.3
		c3.2,3.2,3.2,8.5,0,11.7C113.3,497.9,111.2,498.7,109.1,498.7z"/>
	<path class="st0" d="M332.9,266.6c-73.1,0-132.6-59.5-132.6-132.6c0-73.1,59.5-132.6,132.6-132.6s132.6,59.5,132.6,132.6
		C465.6,207.1,406,266.6,332.9,266.6z M332.9,17.9c-64,0-116.1,52.1-116.1,116.1c0,64,52.1,116.1,116.1,116.1S449,197.9,449,133.9
		C449,69.9,396.9,17.9,332.9,17.9z"/>
	<path class="st0" d="M42.7,432.4c-2.1,0-4.3-0.8-5.9-2.4c-3.2-3.2-3.2-8.5,0-11.7l201.9-200.7c3.2-3.2,8.5-3.2,11.7,0
		c3.2,3.2,3.2,8.5,0,11.7L48.6,430C47,431.6,44.8,432.4,42.7,432.4z"/>
	<path class="st0" d="M167.1,440.7c-2.1,0-4.2-0.8-5.9-2.4l-65.7-65.7c-3.2-3.2-3.2-8.5,0-11.7c3.2-3.2,8.5-3.2,11.7,0l65.7,65.7
		c3.2,3.2,3.2,8.5,0,11.7C171.3,439.9,169.2,440.7,167.1,440.7z"/>
</g>
</svg>
