<?xml version="1.0" encoding="utf-8"?>
<!-- Generator: Adobe Illustrator 22.1.0, SVG Export Plug-In . SVG Version: 6.00 Build 0)  -->
<svg version="1.1" id="Layer_1" xmlns="http://www.w3.org/2000/svg" xmlns:xlink="http://www.w3.org/1999/xlink" x="0px" y="0px"
	 viewBox="0 0 500 500" style="enable-background:new 0 0 500 500;" xml:space="preserve">
<style type="text/css">
	.st0{fill:#010101;}
</style>
<g>
	<g>
		<path class="st0" d="M250,491c-4,0-7.5-2.9-8.1-7c-0.7-4.5,2.4-8.7,6.9-9.4l223.5-34.8c4.3-0.9,8.6-6.1,8.6-10.9V30.3
			c0-1.7-0.6-3.1-1.6-4c-1-0.8-2.5-1.1-4.2-0.8l-223.7,39c-4.6,0.7-8.8-2.2-9.5-6.7c-0.8-4.5,2.2-8.8,6.7-9.5L472.1,9.4
			c6.3-1.3,12.8,0.2,17.7,4.2c4.8,4,7.6,10.1,7.6,16.7v398.6c0,12.7-9.8,24.7-22.2,27.2l-223.9,34.9C250.8,491,250.4,491,250,491z"
			/>
		<g>
			<g>
				<line class="st0" x1="250" y1="56.5" x2="250" y2="482.8"/>
			</g>
			<path class="st0" d="M250,491c-4.6,0-8.2-3.7-8.2-8.2V56.5c0-4.6,3.7-8.2,8.2-8.2s8.2,3.7,8.2,8.2v426.3
				C258.2,487.3,254.6,491,250,491z"/>
		</g>
	</g>
	<g>
		<g>
			<line class="st0" x1="414.9" y1="349" x2="316" y2="365.5"/>
			<path class="st0" d="M316,373.7c-4,0-7.5-2.9-8.1-6.9c-0.7-4.5,2.3-8.7,6.8-9.5l99-16.5c4.5-0.8,8.7,2.3,9.5,6.8
				c0.7,4.5-2.3,8.7-6.8,9.5l-99,16.5C316.9,373.7,316.4,373.7,316,373.7z"/>
		</g>
		<g>
			<line class="st0" x1="414.9" y1="126.3" x2="316" y2="142.8"/>
			<path class="st0" d="M316,151.1c-4,0-7.5-2.9-8.1-6.9c-0.7-4.5,2.3-8.7,6.8-9.5l99-16.5c4.5-0.8,8.7,2.3,9.5,6.8
				c0.7,4.5-2.3,8.7-6.8,9.5l-99,16.5C316.9,151,316.4,151.1,316,151.1z"/>
		</g>
		<g>
			<line class="st0" x1="414.9" y1="241.8" x2="316" y2="258.3"/>
			<path class="st0" d="M316,266.5c-4,0-7.5-2.9-8.1-6.9c-0.7-4.5,2.3-8.7,6.8-9.5l99-16.5c4.5-0.8,8.7,2.3,9.5,6.8
				c0.7,4.5-2.3,8.7-6.8,9.5l-99,16.5C316.9,266.5,316.4,266.5,316,266.5z"/>
		</g>
	</g>
	<path class="st0" d="M250,491c-0.4,0-0.8,0-1.3-0.1L25.2,456.1c-12.8-2.6-22.6-14.5-22.6-27.2V30.3c0-6.7,2.8-12.8,7.6-16.7
		c4.8-4,11.3-5.5,17.9-4.2l223.3,38.9c4.5,0.8,7.5,5.1,6.7,9.5c-0.8,4.5-5,7.5-9.5,6.7L25.1,25.7c-1.9-0.4-3.4-0.1-4.4,0.7
		c-1,0.8-1.6,2.2-1.6,4v398.6c0,4.8,4.3,10,9,11l223.2,34.7c4.5,0.7,7.6,4.9,6.9,9.4C257.5,488.1,254,491,250,491z"/>
	<g>
		<g>
			<line class="st0" x1="85.1" y1="349" x2="184" y2="365.5"/>
			<path class="st0" d="M184,373.7c-0.4,0-0.9,0-1.4-0.1l-99-16.5c-4.5-0.7-7.5-5-6.8-9.5c0.7-4.5,5-7.6,9.5-6.8l99,16.5
				c4.5,0.7,7.5,5,6.8,9.5C191.5,370.8,188,373.7,184,373.7z"/>
		</g>
		<g>
			<line class="st0" x1="85.1" y1="126.3" x2="184" y2="142.8"/>
			<path class="st0" d="M184,151.1c-0.4,0-0.9,0-1.4-0.1l-99-16.5c-4.5-0.7-7.5-5-6.8-9.5c0.7-4.5,5-7.5,9.5-6.8l99,16.5
				c4.5,0.7,7.5,5,6.8,9.5C191.5,148.2,188,151.1,184,151.1z"/>
		</g>
		<g>
			<line class="st0" x1="85.1" y1="241.8" x2="184" y2="258.3"/>
			<path class="st0" d="M184,266.5c-0.4,0-0.9,0-1.4-0.1l-99-16.5c-4.5-0.7-7.5-5-6.8-9.5c0.7-4.5,5-7.5,9.5-6.8l99,16.5
				c4.5,0.7,7.5,5,6.8,9.5C191.5,263.6,188,266.5,184,266.5z"/>
		</g>
	</g>
</g>
</svg>
