<?xml version="1.0" encoding="utf-8"?>
<!-- Generator: Adobe Illustrator 22.1.0, SVG Export Plug-In . SVG Version: 6.00 Build 0)  -->
<svg version="1.1" id="Layer_1" xmlns="http://www.w3.org/2000/svg" xmlns:xlink="http://www.w3.org/1999/xlink" x="0px" y="0px"
	 viewBox="0 0 500 500" style="enable-background:new 0 0 500 500;" xml:space="preserve">
<style type="text/css">
	.st0{fill:#010101;}
</style>
<g>
	<path class="st0" d="M475.3,496.9H199.4c-8.9,0-16.2-7.3-16.2-16.2V328.7c0-4.5,3.6-8.1,8.1-8.1s8.1,3.6,8.1,8.1v151.9h275.9V26.2
		H199.4v156.5c0,4.5-3.6,8.1-8.1,8.1s-8.1-3.6-8.1-8.1V26.2c0-9,7.3-16.2,16.2-16.2h275.9c8.9,0,16.2,7.3,16.2,16.2v454.5
		C491.6,489.6,484.3,496.9,475.3,496.9z"/>
	<g>
		<path class="st0" d="M353.6,261.5H12.7c-4.5,0-8.1-3.6-8.1-8.1s3.6-8.1,8.1-8.1h340.9c4.5,0,8.1,3.6,8.1,8.1
			S358.1,261.5,353.6,261.5z"/>
		<path class="st0" d="M256.2,358.9c-2.1,0-4.2-0.8-5.7-2.4c-3.2-3.2-3.2-8.3,0-11.5l91.7-91.7l-91.7-91.7c-3.2-3.2-3.2-8.3,0-11.5
			c3.2-3.2,8.3-3.2,11.5,0l97.4,97.4c3.2,3.2,3.2,8.3,0,11.5l-97.4,97.4C260.4,358.1,258.3,358.9,256.2,358.9z"/>
	</g>
</g>
</svg>
