<?xml version="1.0" encoding="utf-8"?>
<!-- Generator: Adobe Illustrator 22.1.0, SVG Export Plug-In . SVG Version: 6.00 Build 0)  -->
<svg version="1.1" id="Layer_1" xmlns="http://www.w3.org/2000/svg" xmlns:xlink="http://www.w3.org/1999/xlink" x="0px" y="0px"
	 viewBox="0 0 500 500" style="enable-background:new 0 0 500 500;" xml:space="preserve">
<style type="text/css">
	.st0{fill:#010101;}
</style>
<g>
	<path class="st0" d="M249,349c-54.8,0-99.3-44.6-99.3-99.3s44.6-99.3,99.3-99.3c54.7,0,99.3,44.5,99.3,99.3S303.7,349,249,349z
		 M249,167c-45.6,0-82.8,37.1-82.8,82.8s37.1,82.8,82.8,82.8c45.6,0,82.7-37.1,82.7-82.8S294.6,167,249,167z"/>
	<path class="st0" d="M219.5,498.3c-4.1,0-7.6-3-8.2-7l-8.9-58.4c-16.5-4.3-32.4-10.8-47.3-19.4l-46.9,35.4
		c-3.3,2.5-7.9,2.2-10.8-0.7L52.9,404c-2.9-2.9-3.3-7.5-0.9-10.8l34.8-47.6c-9-15.2-15.7-31.4-20-48.2l-57.6-7.2
		c-4.1-0.5-7.2-4-7.3-8.2l-0.2-62.5c0-4.1,3-7.6,7-8.2l58.3-8.8c4.5-16.9,11.2-33.1,20.2-48.2l-36.1-46.1c-2.6-3.3-2.3-8,0.7-10.9
		L96,52.9c2.9-2.9,7.6-3.3,10.9-0.8L154.1,88c15.1-8.9,31.2-15.6,48-19.9l7.6-58.9c0.5-4.1,4-7.2,8.2-7.2l62.6-0.2c0,0,0,0,0,0
		c4.1,0,7.6,3,8.2,7.1l8.6,59.1c16.4,4.3,32.2,10.7,47.1,19.3l47.5-36.1c3.3-2.5,7.9-2.2,10.8,0.7L447.1,96
		c2.9,2.9,3.3,7.5,0.8,10.8l-35.6,47.3c9,15,15.8,31.1,20.2,48l58.3,7.6c4.1,0.5,7.2,4,7.2,8.2l0.2,62.5c0,4.1-3,7.6-7,8.2l-58.4,9
		c-4.3,16.6-10.9,32.5-19.6,47.4l35.6,46.7c2.5,3.3,2.2,7.9-0.7,10.9L404,447.1c-2.9,2.9-7.5,3.3-10.8,0.8l-47.7-35
		c-15,8.8-30.9,15.4-47.6,19.8l-7.7,58.2c-0.5,4.1-4,7.2-8.2,7.2L219.5,498.3C219.5,498.3,219.5,498.3,219.5,498.3z M154.6,395.2
		c1.5,0,3,0.4,4.4,1.2c16.4,10.2,34.1,17.4,52.6,21.6c3.3,0.8,5.8,3.5,6.4,6.8l8.7,56.8l48.2-0.2l7.5-56.6c0.5-3.4,3-6.2,6.4-7
		c18.7-4.3,36.6-11.7,53-22c2.9-1.8,6.6-1.7,9.3,0.3l46.4,34.1l34-34.2l-34.7-45.5c-2.1-2.7-2.3-6.5-0.4-9.4
		c10.3-16.4,17.6-34.1,21.8-52.7c0.8-3.3,3.5-5.8,6.8-6.3l56.9-8.8l-0.2-48.2l-56.7-7.4c-3.4-0.4-6.2-3-7-6.3
		c-4.4-19-12-36.9-22.5-53.3c-1.9-2.9-1.7-6.7,0.4-9.4l34.7-46l-34.2-34L350,103.9c-2.7,2.1-6.5,2.3-9.4,0.5
		c-16.3-10.1-34-17.3-52.5-21.5c-3.3-0.8-5.9-3.5-6.4-6.9l-8.4-57.6l-48.2,0.1l-7.4,57.4c-0.4,3.4-3,6.2-6.4,7
		c-18.9,4.3-36.9,11.8-53.5,22.2c-2.9,1.8-6.7,1.7-9.4-0.4l-45.9-34.9l-33.9,34.1l35.1,44.9c2.2,2.8,2.3,6.6,0.5,9.5
		c-10.5,16.5-18.1,34.5-22.5,53.5c-0.8,3.3-3.5,5.8-6.8,6.3l-56.7,8.5l0.2,48.1l56.1,7c3.5,0.4,6.3,3,7.1,6.4
		c4.2,18.9,11.7,36.9,22.2,53.6c1.8,2.9,1.7,6.6-0.3,9.3l-33.9,46.3l34.3,34l45.7-34.5C151.1,395.7,152.8,395.2,154.6,395.2z"/>
</g>
</svg>
