<?xml version="1.0" encoding="utf-8"?>
<!-- Generator: Adobe Illustrator 22.1.0, SVG Export Plug-In . SVG Version: 6.00 Build 0)  -->
<svg version="1.1" id="Layer_1" xmlns="http://www.w3.org/2000/svg" xmlns:xlink="http://www.w3.org/1999/xlink" x="0px" y="0px"
	 viewBox="0 0 500 500" style="enable-background:new 0 0 500 500;" xml:space="preserve">
<style type="text/css">
	.st0{fill:#010101;}
</style>
<g>
	<g>
		<g>
			<g>
				<g>
					<g>
						<path class="st0" d="M192.2,258.2c-2.1,0-4.2-0.8-5.8-2.4c-3.2-3.2-3.2-8.5,0-11.7L417.6,12.8c3.2-3.2,8.5-3.2,11.7,0
							c3.2,3.2,3.2,8.5,0,11.7L198,255.8C196.4,257.4,194.3,258.2,192.2,258.2z"/>
						<path class="st0" d="M250,316c-2.1,0-4.2-0.8-5.8-2.4c-3.2-3.2-3.2-8.5,0-11.7L475.5,70.6c3.2-3.2,8.5-3.2,11.7,0
							c3.2,3.2,3.2,8.5,0,11.7L255.8,313.6C254.2,315.2,252.1,316,250,316z"/>
					</g>
					<path class="st0" d="M481.3,84.7c-1.9,0-3.9-0.7-5.4-2c-3.4-3-3.8-8.2-0.8-11.7c7.4-8.5,9.7-30.5-2.4-43.4
						c-5-5.4-13.2-8.6-22.6-8.9c-9.9-0.2-17.7,2.7-21,5.9c-3.3,3.1-8.5,3-11.7-0.3s-3-8.5,0.3-11.7c7.1-6.8,19.8-10.8,32.9-10.4
						c13.9,0.4,26.1,5.4,34.1,14.1c17.8,18.9,16.1,50.2,2.8,65.5C485.9,83.8,483.6,84.7,481.3,84.7z"/>
				</g>
				<path class="st0" d="M159.1,349.1c-2.2,0-4.3-0.8-5.8-2.4c-2.3-2.3-3-5.6-1.9-8.7l33-90.9c1.6-4.3,6.3-6.5,10.6-4.9
					c4.3,1.6,6.5,6.3,4.9,10.6l-27,74.2l74.2-27c4.3-1.6,9,0.6,10.6,4.9c1.6,4.3-0.7,9-4.9,10.6l-90.9,33
					C161,348.9,160.1,349.1,159.1,349.1z"/>
			</g>
		</g>
	</g>
	<g>
		<path class="st0" d="M423.5,497.8H10.4c-4.6,0-8.3-3.7-8.3-8.3V76.5c0-4.6,3.7-8.3,8.3-8.3h264.4c4.6,0,8.3,3.7,8.3,8.3
			s-3.7,8.3-8.3,8.3H18.7v396.5h396.6l0-256c0-4.6,3.7-8.3,8.3-8.3c4.6,0,8.3,3.7,8.3,8.3l0,264.3c0,2.2-0.9,4.3-2.4,5.8
			C427.8,496.9,425.7,497.8,423.5,497.8z"/>
	</g>
</g>
</svg>
