<?xml version="1.0" encoding="utf-8"?>
<!-- Generator: Adobe Illustrator 22.1.0, SVG Export Plug-In . SVG Version: 6.00 Build 0)  -->
<svg version="1.1" id="Layer_1" xmlns="http://www.w3.org/2000/svg" xmlns:xlink="http://www.w3.org/1999/xlink" x="0px" y="0px"
	 viewBox="0 0 500 500" style="enable-background:new 0 0 500 500;" xml:space="preserve">
<style type="text/css">
	.st0{fill:#010101;}
</style>
<g>
	<path class="st0" d="M473.6,497.8H26.4C13,497.8,2.2,486.7,2.2,473v-33c0-3,1.6-5.8,4.3-7.3l181.7-99.1c4-2.2,9-0.7,11.2,3.3
		c2.2,4,0.7,9-3.3,11.2L18.7,444.9V473c0,4.6,3.5,8.3,7.7,8.3h447.2c4.3,0,7.7-3.7,7.7-8.3v-28.2l-177.2-96.8
		c-4-2.2-5.5-7.2-3.3-11.2c2.2-4,7.2-5.5,11.2-3.3l181.5,99.1c2.7,1.5,4.3,4.2,4.3,7.3V473C497.8,486.7,486.9,497.8,473.6,497.8z"/>
	<path class="st0" d="M308.1,349.1c-2.8,0-5.6-1.4-7.1-4c-2.3-3.9-1.1-9,2.9-11.3c61-36.4,61.8-133.7,61.8-134.7l-0.1-93.6
		c-8.9-50.9-67.4-86.4-114.9-86.8c-0.2,0-0.5,0-0.7,0c-47.6,0-106.6,35.6-115.6,86.8l-0.1,93.6c0,0.9,0.9,95.6,62.3,134.8
		c3.8,2.5,5,7.6,2.5,11.4s-7.6,5-11.4,2.5c-69.1-44.1-69.9-144.5-69.9-148.7l0.1-94.3c0-0.5,0-0.9,0.1-1.3
		C126.1,54.7,180.7,2.6,249.2,2.2c0.2,0,0.5,0,0.8,0c68.9,0,123.9,52.4,132,101.3c0.1,0.4,0.1,0.9,0.1,1.4l0.1,94.3
		c0,4.4-0.8,107.6-69.9,148.9C311,348.8,309.5,349.1,308.1,349.1z"/>
</g>
</svg>
