<?xml version="1.0" encoding="utf-8"?>
<!-- Generator: Adobe Illustrator 22.1.0, SVG Export Plug-In . SVG Version: 6.00 Build 0)  -->
<svg version="1.1" id="Layer_1" xmlns="http://www.w3.org/2000/svg" xmlns:xlink="http://www.w3.org/1999/xlink" x="0px" y="0px"
	 viewBox="0 0 500 500" style="enable-background:new 0 0 500 500;" xml:space="preserve">
<style type="text/css">
	.st0{fill:#010101;}
</style>
<g>
	<g>
		<path class="st0" d="M471.9,496.5H28.1c-13.6,0-24.7-11.1-24.7-24.7V77.4c0-13.6,11.1-24.7,24.7-24.7h443.7
			c13.6,0,24.7,11.1,24.7,24.7v394.4C496.5,485.5,485.5,496.5,471.9,496.5z M28.1,69.2c-4.5,0-8.2,3.7-8.2,8.2v394.4
			c0,4.5,3.7,8.2,8.2,8.2h443.7c4.5,0,8.2-3.7,8.2-8.2V77.4c0-4.5-3.7-8.2-8.2-8.2H28.1z"/>
		<g>
			<path class="st0" d="M167.8,102.1c-4.5,0-8.2-3.7-8.2-8.2V11.7c0-4.5,3.7-8.2,8.2-8.2s8.2,3.7,8.2,8.2v82.2
				C176,98.4,172.4,102.1,167.8,102.1z"/>
		</g>
		<g>
			<path class="st0" d="M332.2,102.1c-4.5,0-8.2-3.7-8.2-8.2V11.7c0-4.5,3.7-8.2,8.2-8.2s8.2,3.7,8.2,8.2v82.2
				C340.4,98.4,336.7,102.1,332.2,102.1z"/>
		</g>
	</g>
	<g>
		<path class="st0" d="M143.2,241.8h-32.9c-4.5,0-8.2-3.7-8.2-8.2v-32.9c0-4.5,3.7-8.2,8.2-8.2h32.9c4.5,0,8.2,3.7,8.2,8.2v32.9
			C151.4,238.1,147.7,241.8,143.2,241.8z M118.5,225.3H135v-16.4h-16.4V225.3z"/>
		<path class="st0" d="M266.4,241.8h-32.9c-4.5,0-8.2-3.7-8.2-8.2v-32.9c0-4.5,3.7-8.2,8.2-8.2h32.9c4.5,0,8.2,3.7,8.2,8.2v32.9
			C274.7,238.1,271,241.8,266.4,241.8z M241.8,225.3h16.4v-16.4h-16.4V225.3z"/>
		<path class="st0" d="M389.7,241.8h-32.9c-4.5,0-8.2-3.7-8.2-8.2v-32.9c0-4.5,3.7-8.2,8.2-8.2h32.9c4.5,0,8.2,3.7,8.2,8.2v32.9
			C397.9,238.1,394.2,241.8,389.7,241.8z M365,225.3h16.4v-16.4H365V225.3z"/>
		<path class="st0" d="M143.2,365h-32.9c-4.5,0-8.2-3.7-8.2-8.2V324c0-4.5,3.7-8.2,8.2-8.2h32.9c4.5,0,8.2,3.7,8.2,8.2v32.9
			C151.4,361.4,147.7,365,143.2,365z M118.5,348.6H135v-16.4h-16.4V348.6z"/>
		<path class="st0" d="M266.4,365h-32.9c-4.5,0-8.2-3.7-8.2-8.2V324c0-4.5,3.7-8.2,8.2-8.2h32.9c4.5,0,8.2,3.7,8.2,8.2v32.9
			C274.7,361.4,271,365,266.4,365z M241.8,348.6h16.4v-16.4h-16.4V348.6z"/>
		<path class="st0" d="M389.7,365h-32.9c-4.5,0-8.2-3.7-8.2-8.2V324c0-4.5,3.7-8.2,8.2-8.2h32.9c4.5,0,8.2,3.7,8.2,8.2v32.9
			C397.9,361.4,394.2,365,389.7,365z M365,348.6h16.4v-16.4H365V348.6z"/>
	</g>
</g>
</svg>
