<?xml version="1.0" encoding="utf-8"?>
<!-- Generator: Adobe Illustrator 22.1.0, SVG Export Plug-In . SVG Version: 6.00 Build 0)  -->
<svg version="1.1" id="Layer_1" xmlns="http://www.w3.org/2000/svg" xmlns:xlink="http://www.w3.org/1999/xlink" x="0px" y="0px"
	 viewBox="0 0 500 500" style="enable-background:new 0 0 500 500;" xml:space="preserve">
<style type="text/css">
	.st0{fill:#010101;}
</style>
<g>
	<g>
		<g>
			<path class="st0" d="M109.7,481.4c-1.9,0-3.9-0.7-5.4-2c-3.4-3-3.8-8.2-0.8-11.7l185.8-213.7c3-3.4,8.2-3.8,11.7-0.8
				c3.5,3,3.8,8.2,0.8,11.7L116,478.5C114.3,480.4,112,481.4,109.7,481.4z"/>
			<path class="st0" d="M26.9,398.6c-2.3,0-4.6-1-6.2-2.8c-3-3.4-2.7-8.7,0.8-11.7l213.4-186.3c3.4-3,8.7-2.6,11.7,0.8
				c3,3.4,2.7,8.7-0.8,11.7L32.4,396.5C30.8,397.9,28.9,398.6,26.9,398.6z"/>
			<path class="st0" d="M68.3,498.5c-17.9,0-34.6-7-47.3-19.6C8.5,466.3,1.5,449.5,1.5,431.7c0-17.9,7-34.6,19.6-47.2
				c3.2-3.2,8.5-3.2,11.7,0c3.2,3.2,3.2,8.5,0,11.7c-9.5,9.5-14.7,22.1-14.7,35.5c0,13.4,5.2,26.1,14.7,35.5
				c9.5,9.5,22.1,14.7,35.5,14.7c0,0,0,0,0,0c13.4,0,26.1-5.2,35.5-14.7c3.2-3.2,8.5-3.2,11.7,0c3.2,3.2,3.2,8.5,0,11.7
				C103,491.5,86.2,498.5,68.3,498.5C68.3,498.5,68.3,498.5,68.3,498.5z"/>
		</g>
		<path class="st0" d="M357.9,283.3c-22.5,0-45.2-5.5-66.3-16.6c-4-2.2-5.6-7.2-3.4-11.2c2.1-4,7.2-5.6,11.2-3.4
			c48.5,25.8,107.2,17,146.1-21.9c24.8-24.7,37.7-58.7,36.3-93.2l-51.3,51.4c-2.2,2.2-5.5,3-8.5,2L370,173
			c-20.2-6.7-36.3-22.8-43-43l-17.3-52c-1-2.9-0.3-6.1,1.9-8.3l49-51.5c-33.8-1.6-65.5,11-90.7,36.3
			c-38.7,38.7-47.6,97.2-22.2,145.6c2.1,4,0.6,9.1-3.5,11.2c-4.1,2.1-9.1,0.6-11.2-3.5c-28.8-54.9-18.7-121.2,25.1-165
			c33.2-33.2,76.3-47.1,121.4-39c3,0.5,5.5,2.7,6.4,5.6c1,2.9,0.2,6.1-1.9,8.3L327,77.5l15.8,47.3c5.1,15.3,17.2,27.4,32.5,32.5
			l47.1,15.7l59.9-59.9c2.2-2.2,5.4-3,8.3-2c2.9,0.9,5.1,3.4,5.7,6.4c8.1,45.4-6.5,91.9-39,124.4C430,269.1,394.2,283.3,357.9,283.3
			z"/>
	</g>
</g>
</svg>
