<?xml version="1.0" encoding="utf-8"?>
<!-- Generator: Adobe Illustrator 22.1.0, SVG Export Plug-In . SVG Version: 6.00 Build 0)  -->
<svg version="1.1" id="Layer_1" xmlns="http://www.w3.org/2000/svg" xmlns:xlink="http://www.w3.org/1999/xlink" x="0px" y="0px"
	 viewBox="0 0 500 500" style="enable-background:new 0 0 500 500;" xml:space="preserve">
<style type="text/css">
	.st0{fill:#FFFFFF;}
	.st1{fill:#272626;}
	.st2{fill:#FECF0A;}
</style>
<g>
	<circle class="st0" cx="250" cy="250" r="248.4"/>
	<circle class="st1" cx="250" cy="250" r="225.8"/>
	<path class="st2" d="M250,46.7c-112.2,0-203.2,91-203.2,203.3c0,112.2,91,203.2,203.2,203.2c112.3,0,203.3-91,203.3-203.2
		C453.2,137.8,362.2,46.7,250,46.7z"/>
	<g>
		<g>
			<path class="st1" d="M154.5,188.2c-15.6,0-28.2,12.7-28.2,28.2c0,15.6,12.6,28.2,28.2,28.2c15.6,0,28.2-12.7,28.2-28.2
				C182.7,200.9,170.1,188.2,154.5,188.2z"/>
			<path class="st1" d="M345.5,188.2c-15.6,0-28.2,12.7-28.2,28.2c0,15.6,12.7,28.2,28.2,28.2c15.6,0,28.2-12.7,28.2-28.2
				C373.8,200.9,361.1,188.2,345.5,188.2z"/>
		</g>
		<g>
			
				<rect x="338" y="122.4" transform="matrix(0.3434 -0.9392 0.9392 0.3434 71.9665 438.1117)" class="st1" width="22.6" height="90.3"/>
			<polygon class="st1" points="104.3,172.5 112.1,193.7 196.9,162.7 189.1,141.5 			"/>
		</g>
		<path class="st1" d="M351.6,364.6C351.6,308.6,306,263,250,263c-56,0-101.6,45.5-101.6,101.6h0.1c0,0.4-0.1,0.7-0.1,1.1
			c0,6.2,5,11.3,11.3,11.3c6.2,0,11.3-5.1,11.3-11.3c0-0.4-0.1-0.7-0.1-1.1h0.1c0-43.6,35.4-79,79-79c43.6,0,79.1,35.4,79.1,79h0.1
			c0,0.4-0.1,0.7-0.1,1.1c0,6.2,5,11.3,11.3,11.3c6.2,0,11.3-5.1,11.3-11.3c0-0.4-0.1-0.7-0.1-1.1H351.6z"/>
	</g>
</g>
</svg>
