<?xml version="1.0" encoding="utf-8"?>
<!-- Generator: Adobe Illustrator 22.1.0, SVG Export Plug-In . SVG Version: 6.00 Build 0)  -->
<svg version="1.1" id="Layer_1" xmlns="http://www.w3.org/2000/svg" xmlns:xlink="http://www.w3.org/1999/xlink" x="0px" y="0px"
	 viewBox="0 0 500 500" style="enable-background:new 0 0 500 500;" xml:space="preserve">
<style type="text/css">
	.st0{fill:#FFFFFF;}
	.st1{fill:#272626;}
	.st2{fill:#FECF0A;}
</style>
<g>
	<circle class="st0" cx="250" cy="250" r="248.9"/>
	<circle class="st1" cx="250" cy="250" r="226.3"/>
	<path class="st2" d="M250,46.3C137.5,46.3,46.3,137.5,46.3,250c0,112.5,91.2,203.7,203.7,203.7c112.5,0,203.7-91.2,203.7-203.7
		C453.7,137.5,362.5,46.3,250,46.3z"/>
	<path class="st1" d="M154.3,184.4c-15.7,0-28.3,12.6-28.3,28.3c0,15.6,12.6,28.3,28.3,28.3c15.6,0,28.2-12.6,28.2-28.3
		C182.5,197,169.9,184.4,154.3,184.4z"/>
	<path class="st1" d="M345.7,184.4c-15.6,0-28.3,12.6-28.3,28.3c0,15.6,12.7,28.3,28.3,28.3c15.6,0,28.3-12.6,28.3-28.3
		C374,197,361.3,184.4,345.7,184.4z"/>
	<path class="st1" d="M364.2,303.4c-65.4,64.7-163.1,64.7-228.5,0c-5.2-5.1-6-13.3-2.1-17.7c3.9-4.3,10.6-3.9,15.1,0.6
		c58,57.3,144.5,57.3,202.5,0c4.6-4.5,11.2-4.9,15.1-0.6C370.3,290.1,369.4,298.2,364.2,303.4z"/>
</g>
</svg>
